%TF.GenerationSoftware,KiCad,Pcbnew,8.0.8*%
%TF.CreationDate,2025-03-04T11:57:41-03:00*%
%TF.ProjectId,switched_power_supply,73776974-6368-4656-945f-706f7765725f,rev?*%
%TF.SameCoordinates,Original*%
%TF.FileFunction,Legend,Bot*%
%TF.FilePolarity,Positive*%
%FSLAX46Y46*%
G04 Gerber Fmt 4.6, Leading zero omitted, Abs format (unit mm)*
G04 Created by KiCad (PCBNEW 8.0.8) date 2025-03-04 11:57:41*
%MOMM*%
%LPD*%
G01*
G04 APERTURE LIST*
%TA.AperFunction,ComponentPad*%
%ADD10R,1.800000X1.800000*%
%TD*%
%TA.AperFunction,ComponentPad*%
%ADD11O,1.800000X1.800000*%
%TD*%
%TA.AperFunction,ComponentPad*%
%ADD12C,2.500000*%
%TD*%
%TA.AperFunction,ComponentPad*%
%ADD13R,3.000000X3.000000*%
%TD*%
%TA.AperFunction,ComponentPad*%
%ADD14C,3.000000*%
%TD*%
%TA.AperFunction,ComponentPad*%
%ADD15C,2.400000*%
%TD*%
%TA.AperFunction,ComponentPad*%
%ADD16O,2.400000X2.400000*%
%TD*%
%TA.AperFunction,ComponentPad*%
%ADD17R,1.600000X1.600000*%
%TD*%
%TA.AperFunction,ComponentPad*%
%ADD18O,1.600000X1.600000*%
%TD*%
%TA.AperFunction,ComponentPad*%
%ADD19R,2.400000X2.400000*%
%TD*%
%TA.AperFunction,ComponentPad*%
%ADD20R,2.200000X2.200000*%
%TD*%
%TA.AperFunction,ComponentPad*%
%ADD21O,2.200000X2.200000*%
%TD*%
%TA.AperFunction,ComponentPad*%
%ADD22C,2.000000*%
%TD*%
%TA.AperFunction,ComponentPad*%
%ADD23C,1.600000*%
%TD*%
%TA.AperFunction,ViaPad*%
%ADD24C,0.600000*%
%TD*%
%TA.AperFunction,Conductor*%
%ADD25C,0.600000*%
%TD*%
%TA.AperFunction,Conductor*%
%ADD26C,0.800000*%
%TD*%
G04 APERTURE END LIST*
D10*
%TO.P,D1d3,1,K*%
%TO.N,/BarP*%
X176700000Y-67225000D03*
D11*
%TO.P,D1d3,2,A*%
%TO.N,Net-(D1d1-K)*%
X164000000Y-67225000D03*
%TD*%
D10*
%TO.P,D1d2,1,K*%
%TO.N,/BarP*%
X176700000Y-62225000D03*
D11*
%TO.P,D1d2,2,A*%
%TO.N,Net-(D1d2-A)*%
X164000000Y-62225000D03*
%TD*%
D12*
%TO.P,T1,1*%
%TO.N,N/C*%
X161544000Y-99888500D03*
%TO.P,T1,2,2*%
%TO.N,Net-(D4-A)*%
X156464000Y-99888500D03*
%TO.P,T1,3*%
%TO.N,N/C*%
X151384000Y-99888500D03*
%TO.P,T1,4*%
X146304000Y-99888500D03*
%TO.P,T1,5,5*%
%TO.N,Terra*%
X141224000Y-99888500D03*
%TO.P,T1,6,6*%
%TO.N,Net-(D2-A)*%
X141224000Y-84888500D03*
%TO.P,T1,7,7*%
%TO.N,GND*%
X146304000Y-84888500D03*
%TO.P,T1,8,8*%
%TO.N,/Drain*%
X151384000Y-84888500D03*
%TO.P,T1,9*%
%TO.N,N/C*%
X156464000Y-84888500D03*
%TO.P,T1,10,10*%
%TO.N,/BarP*%
X161544000Y-84888500D03*
%TD*%
D10*
%TO.P,D1d1,1,K*%
%TO.N,Net-(D1d1-K)*%
X164000000Y-72500000D03*
D11*
%TO.P,D1d1,2,A*%
%TO.N,GND*%
X176700000Y-72500000D03*
%TD*%
D13*
%TO.P,V1,1,1*%
%TO.N,Net-(F1-Pad1)*%
X112050000Y-66040000D03*
D14*
%TO.P,V1,2,2*%
%TO.N,Net-(C3-Pad2)*%
X112050000Y-60960000D03*
%TD*%
D15*
%TO.P,R4,1,1*%
%TO.N,/BarP*%
X161595000Y-78500000D03*
D16*
%TO.P,R4,2,2*%
%TO.N,Net-(D3-K)*%
X131115000Y-78500000D03*
%TD*%
D10*
%TO.P,D1d4,1,K*%
%TO.N,Net-(D1d2-A)*%
X164000000Y-57500000D03*
D11*
%TO.P,D1d4,2,A*%
%TO.N,GND*%
X176700000Y-57500000D03*
%TD*%
D15*
%TO.P,C3,1,1*%
%TO.N,Net-(C3-Pad1)*%
X130700000Y-68850000D03*
%TO.P,C3,2,2*%
%TO.N,Net-(C3-Pad2)*%
X130700000Y-53850000D03*
%TD*%
D13*
%TO.P,V2,1,1*%
%TO.N,/Vout*%
X182245000Y-119507000D03*
D14*
%TO.P,V2,2,2*%
%TO.N,Terra*%
X182245000Y-114427000D03*
%TD*%
D15*
%TO.P,C3b1,1,1*%
%TO.N,/BarP*%
X124800000Y-73550000D03*
%TO.P,C3b1,2,2*%
%TO.N,Net-(D3-K)*%
X109800000Y-73550000D03*
%TD*%
D17*
%TO.P,D2,1,K*%
%TO.N,Net-(D2-K)*%
X118745000Y-86360000D03*
D18*
%TO.P,D2,2,A*%
%TO.N,Net-(D2-A)*%
X126365000Y-86360000D03*
%TD*%
D19*
%TO.P,C7,1,1*%
%TO.N,/BarP*%
X173487246Y-82500000D03*
D15*
%TO.P,C7,2,2*%
%TO.N,GND*%
X180987246Y-82500000D03*
%TD*%
D20*
%TO.P,D3,1,K*%
%TO.N,Net-(D3-K)*%
X118745000Y-82000000D03*
D21*
%TO.P,D3,2,A*%
%TO.N,/Drain*%
X126365000Y-82000000D03*
%TD*%
D22*
%TO.P,F1,1,1*%
%TO.N,Net-(F1-Pad1)*%
X117750000Y-66110000D03*
%TO.P,F1,2,2*%
%TO.N,Net-(C3-Pad1)*%
X126250000Y-66110000D03*
%TD*%
D23*
%TO.P,C5,1,1*%
%TO.N,GND*%
X174500000Y-92500000D03*
%TO.P,C5,2,2*%
%TO.N,Terra*%
X179500000Y-92500000D03*
%TD*%
D15*
%TO.P,L1,1,1*%
%TO.N,Net-(C3-Pad2)*%
X138975000Y-57225000D03*
D16*
%TO.P,L1,2,2*%
%TO.N,Net-(D1d2-A)*%
X153975000Y-57225000D03*
D15*
%TO.P,L1,3,3*%
%TO.N,Net-(C3-Pad1)*%
X138975000Y-67225000D03*
D16*
%TO.P,L1,4,4*%
%TO.N,Net-(D1d1-K)*%
X153975000Y-67225000D03*
%TD*%
D24*
%TO.N,/Drain*%
X122400000Y-92000000D03*
%TO.N,/Cmp*%
X109054800Y-102514400D03*
X113626800Y-94132400D03*
%TO.N,/Vdd*%
X132803800Y-98069400D03*
X113499800Y-95529400D03*
%TO.N,Net-(D2-K)*%
X112900000Y-91950000D03*
%TO.N,Net-(D4-K)*%
X145000000Y-120000000D03*
X156000000Y-110500000D03*
%TO.N,/Vout*%
X148750000Y-116250000D03*
%TD*%
D25*
%TO.N,Net-(D1d1-K)*%
X163050000Y-67400000D02*
X153975000Y-67400000D01*
X164000000Y-67225000D02*
X163225000Y-67225000D01*
X163225000Y-67225000D02*
X163050000Y-67400000D01*
X164000000Y-72500000D02*
X164000000Y-67225000D01*
%TO.N,GND*%
X180987246Y-82500000D02*
X174604746Y-88882500D01*
X176700000Y-72500000D02*
X180987246Y-76787246D01*
X173480000Y-88882500D02*
X148612500Y-88882500D01*
X174500000Y-88882500D02*
X174500000Y-92500000D01*
X176850000Y-72650000D02*
X178675000Y-72650000D01*
X146304000Y-86574000D02*
X146304000Y-84888500D01*
X179375000Y-57500000D02*
X176700000Y-57500000D01*
X180400000Y-70925000D02*
X180400000Y-58525000D01*
X148612500Y-88882500D02*
X146304000Y-86574000D01*
X176700000Y-72500000D02*
X176850000Y-72650000D01*
X173480000Y-88882500D02*
X174500000Y-88882500D01*
X180987246Y-76787246D02*
X180987246Y-81375254D01*
X174604746Y-88882500D02*
X173480000Y-88882500D01*
X180400000Y-58525000D02*
X179375000Y-57500000D01*
X178675000Y-72650000D02*
X180400000Y-70925000D01*
%TO.N,/BarP*%
X161595000Y-78500000D02*
X165425000Y-78500000D01*
X165425000Y-78500000D02*
X176700000Y-67225000D01*
X169425000Y-82500000D02*
X165425000Y-78500000D01*
X176700000Y-62225000D02*
X176700000Y-67225000D01*
X173487246Y-82500000D02*
X169425000Y-82500000D01*
X156645000Y-73550000D02*
X161595000Y-78500000D01*
X124800000Y-73550000D02*
X156645000Y-73550000D01*
X161595000Y-83896000D02*
X161595000Y-78500000D01*
X161507500Y-78500000D02*
X161507500Y-77855000D01*
X161507500Y-78500000D02*
X161507500Y-78000000D01*
X161544000Y-83947000D02*
X161595000Y-83896000D01*
%TO.N,Net-(D1d2-A)*%
X164500000Y-57000000D02*
X164000000Y-57500000D01*
X163725000Y-57225000D02*
X154150000Y-57225000D01*
X164000000Y-57500000D02*
X163725000Y-57225000D01*
X154150000Y-57225000D02*
X153975000Y-57400000D01*
X164000000Y-57500000D02*
X164000000Y-62225000D01*
%TO.N,Net-(D3-K)*%
X114750000Y-78500000D02*
X131115000Y-78500000D01*
X109800000Y-73550000D02*
X114750000Y-78500000D01*
X131150000Y-78535000D02*
X131115000Y-78500000D01*
X117530000Y-81280000D02*
X118745000Y-81280000D01*
X117125000Y-80875000D02*
X117530000Y-81280000D01*
X114750000Y-78500000D02*
X117125000Y-80875000D01*
X118250000Y-82000000D02*
X118745000Y-82000000D01*
X117125000Y-80875000D02*
X118250000Y-82000000D01*
%TO.N,/Drain*%
X137692468Y-82692467D02*
X139546435Y-80838500D01*
X149698500Y-80838500D02*
X151384000Y-82524000D01*
X126365000Y-82000000D02*
X127057467Y-82692467D01*
X127057467Y-82692467D02*
X137692468Y-82692467D01*
X124809366Y-82000000D02*
X122400000Y-84409366D01*
X126365000Y-82000000D02*
X124809366Y-82000000D01*
X139546435Y-80838500D02*
X149698500Y-80838500D01*
X126365000Y-81280000D02*
X126835000Y-81750000D01*
X151384000Y-82524000D02*
X151384000Y-84888500D01*
X122400000Y-84409366D02*
X122400000Y-92000000D01*
%TO.N,/Cmp*%
X109054800Y-102514400D02*
X109054800Y-96164400D01*
X111086800Y-94132400D02*
X113626800Y-94132400D01*
X109054800Y-96164400D02*
X111086800Y-94132400D01*
%TO.N,/Vdd*%
X132803800Y-98069400D02*
X116039800Y-98069400D01*
X116039800Y-98069400D02*
X113499800Y-95529400D01*
D26*
%TO.N,Terra*%
X141224000Y-100024000D02*
X141224000Y-99888500D01*
D25*
%TO.N,Net-(D2-K)*%
X118490000Y-86360000D02*
X118745000Y-86360000D01*
X112900000Y-91950000D02*
X118490000Y-86360000D01*
%TO.N,Net-(C3-Pad1)*%
X137860000Y-66110000D02*
X138975000Y-67225000D01*
X127960000Y-66110000D02*
X130700000Y-68850000D01*
X126250000Y-66110000D02*
X137860000Y-66110000D01*
X126250000Y-66110000D02*
X127960000Y-66110000D01*
X138975000Y-67225000D02*
X138975000Y-66885000D01*
%TO.N,Net-(C3-Pad2)*%
X121785000Y-57225000D02*
X118050000Y-60960000D01*
X138800000Y-57225000D02*
X121785000Y-57225000D01*
X118050000Y-60960000D02*
X112050000Y-60960000D01*
X127325000Y-57225000D02*
X121785000Y-57225000D01*
X138975000Y-57400000D02*
X138800000Y-57225000D01*
X130700000Y-53850000D02*
X127325000Y-57225000D01*
%TO.N,Net-(D4-K)*%
X145000000Y-120000000D02*
X145000000Y-116000422D01*
X145000000Y-116000422D02*
X150500422Y-110500000D01*
X150500422Y-110500000D02*
X156000000Y-110500000D01*
%TO.N,/Vout*%
X148750000Y-116250000D02*
X152007000Y-119507000D01*
X152007000Y-119507000D02*
X182245000Y-119507000D01*
%TO.N,Net-(D2-A)*%
X139752500Y-86360000D02*
X126365000Y-86360000D01*
X141224000Y-84888500D02*
X139752500Y-86360000D01*
D26*
%TO.N,Net-(F1-Pad1)*%
X112050000Y-66040000D02*
X117680000Y-66040000D01*
X117680000Y-66040000D02*
X117750000Y-66110000D01*
%TD*%
M02*
