%TF.GenerationSoftware,KiCad,Pcbnew,8.0.8*%
%TF.CreationDate,2025-03-04T11:57:41-03:00*%
%TF.ProjectId,switched_power_supply,73776974-6368-4656-945f-706f7765725f,rev?*%
%TF.SameCoordinates,Original*%
%TF.FileFunction,Copper,L1,Top*%
%TF.FilePolarity,Positive*%
%FSLAX46Y46*%
G04 Gerber Fmt 4.6, Leading zero omitted, Abs format (unit mm)*
G04 Created by KiCad (PCBNEW 8.0.8) date 2025-03-04 11:57:41*
%MOMM*%
%LPD*%
G01*
G04 APERTURE LIST*
G04 Aperture macros list*
%AMRoundRect*
0 Rectangle with rounded corners*
0 $1 Rounding radius*
0 $2 $3 $4 $5 $6 $7 $8 $9 X,Y pos of 4 corners*
0 Add a 4 corners polygon primitive as box body*
4,1,4,$2,$3,$4,$5,$6,$7,$8,$9,$2,$3,0*
0 Add four circle primitives for the rounded corners*
1,1,$1+$1,$2,$3*
1,1,$1+$1,$4,$5*
1,1,$1+$1,$6,$7*
1,1,$1+$1,$8,$9*
0 Add four rect primitives between the rounded corners*
20,1,$1+$1,$2,$3,$4,$5,0*
20,1,$1+$1,$4,$5,$6,$7,0*
20,1,$1+$1,$6,$7,$8,$9,0*
20,1,$1+$1,$8,$9,$2,$3,0*%
G04 Aperture macros list end*
%TA.AperFunction,ComponentPad*%
%ADD10R,1.800000X1.800000*%
%TD*%
%TA.AperFunction,ComponentPad*%
%ADD11O,1.800000X1.800000*%
%TD*%
%TA.AperFunction,SMDPad,CuDef*%
%ADD12RoundRect,0.250000X0.450000X-0.262500X0.450000X0.262500X-0.450000X0.262500X-0.450000X-0.262500X0*%
%TD*%
%TA.AperFunction,SMDPad,CuDef*%
%ADD13R,2.800000X2.200000*%
%TD*%
%TA.AperFunction,SMDPad,CuDef*%
%ADD14R,6.000000X2.500000*%
%TD*%
%TA.AperFunction,SMDPad,CuDef*%
%ADD15RoundRect,0.250000X-0.450000X0.262500X-0.450000X-0.262500X0.450000X-0.262500X0.450000X0.262500X0*%
%TD*%
%TA.AperFunction,ComponentPad*%
%ADD16C,2.500000*%
%TD*%
%TA.AperFunction,SMDPad,CuDef*%
%ADD17R,1.250000X0.600000*%
%TD*%
%TA.AperFunction,SMDPad,CuDef*%
%ADD18R,1.800000X1.150000*%
%TD*%
%TA.AperFunction,ComponentPad*%
%ADD19R,3.000000X3.000000*%
%TD*%
%TA.AperFunction,ComponentPad*%
%ADD20C,3.000000*%
%TD*%
%TA.AperFunction,SMDPad,CuDef*%
%ADD21RoundRect,0.317500X-0.317500X0.382500X-0.317500X-0.382500X0.317500X-0.382500X0.317500X0.382500X0*%
%TD*%
%TA.AperFunction,SMDPad,CuDef*%
%ADD22R,4.720000X4.800000*%
%TD*%
%TA.AperFunction,SMDPad,CuDef*%
%ADD23R,0.980000X0.780000*%
%TD*%
%TA.AperFunction,SMDPad,CuDef*%
%ADD24R,2.450000X0.630000*%
%TD*%
%TA.AperFunction,SMDPad,CuDef*%
%ADD25R,7.400000X9.500000*%
%TD*%
%TA.AperFunction,SMDPad,CuDef*%
%ADD26R,2.500000X3.500000*%
%TD*%
%TA.AperFunction,SMDPad,CuDef*%
%ADD27RoundRect,0.185000X0.555000X-0.890000X0.555000X0.890000X-0.555000X0.890000X-0.555000X-0.890000X0*%
%TD*%
%TA.AperFunction,ComponentPad*%
%ADD28C,2.400000*%
%TD*%
%TA.AperFunction,ComponentPad*%
%ADD29O,2.400000X2.400000*%
%TD*%
%TA.AperFunction,SMDPad,CuDef*%
%ADD30R,3.200000X3.050000*%
%TD*%
%TA.AperFunction,ComponentPad*%
%ADD31R,1.600000X1.600000*%
%TD*%
%TA.AperFunction,ComponentPad*%
%ADD32O,1.600000X1.600000*%
%TD*%
%TA.AperFunction,SMDPad,CuDef*%
%ADD33C,1.500000*%
%TD*%
%TA.AperFunction,SMDPad,CuDef*%
%ADD34R,1.870000X1.030000*%
%TD*%
%TA.AperFunction,ComponentPad*%
%ADD35R,2.400000X2.400000*%
%TD*%
%TA.AperFunction,ComponentPad*%
%ADD36R,2.200000X2.200000*%
%TD*%
%TA.AperFunction,ComponentPad*%
%ADD37O,2.200000X2.200000*%
%TD*%
%TA.AperFunction,SMDPad,CuDef*%
%ADD38R,2.720000X1.020000*%
%TD*%
%TA.AperFunction,ComponentPad*%
%ADD39C,2.000000*%
%TD*%
%TA.AperFunction,ComponentPad*%
%ADD40C,1.600000*%
%TD*%
%TA.AperFunction,ViaPad*%
%ADD41C,0.600000*%
%TD*%
%TA.AperFunction,Conductor*%
%ADD42C,0.600000*%
%TD*%
%TA.AperFunction,Conductor*%
%ADD43C,0.800000*%
%TD*%
G04 APERTURE END LIST*
D10*
%TO.P,D1d3,1,K*%
%TO.N,/BarP*%
X176700000Y-67225000D03*
D11*
%TO.P,D1d3,2,A*%
%TO.N,Net-(D1d1-K)*%
X164000000Y-67225000D03*
%TD*%
D12*
%TO.P,R2,1,1*%
%TO.N,Net-(C4-Pad1)*%
X111213800Y-105458900D03*
%TO.P,R2,2,2*%
%TO.N,/Cmp*%
X111213800Y-103633900D03*
%TD*%
D10*
%TO.P,D1d2,1,K*%
%TO.N,/BarP*%
X176700000Y-62225000D03*
D11*
%TO.P,D1d2,2,A*%
%TO.N,Net-(D1d2-A)*%
X164000000Y-62225000D03*
%TD*%
D13*
%TO.P,C9,*%
%TO.N,Terra*%
X182000000Y-99800000D03*
%TO.N,Net-(D4-K)*%
X172100000Y-99800000D03*
%TO.N,Terra*%
X182000000Y-104500000D03*
%TO.N,Net-(D4-K)*%
X172100000Y-104500000D03*
D14*
%TO.P,C9,1,1*%
X172100000Y-102150000D03*
%TO.P,C9,2,2*%
%TO.N,Terra*%
X182000000Y-102150000D03*
%TD*%
D15*
%TO.P,R8,1,1*%
%TO.N,Net-(C10-Pad2)*%
X140088500Y-119461000D03*
%TO.P,R8,2,2*%
%TO.N,Terra*%
X140088500Y-121286000D03*
%TD*%
D16*
%TO.P,T1,1*%
%TO.N,N/C*%
X161544000Y-99888500D03*
%TO.P,T1,2,2*%
%TO.N,Net-(D4-A)*%
X156464000Y-99888500D03*
%TO.P,T1,3*%
%TO.N,N/C*%
X151384000Y-99888500D03*
%TO.P,T1,4*%
X146304000Y-99888500D03*
%TO.P,T1,5,5*%
%TO.N,Terra*%
X141224000Y-99888500D03*
%TO.P,T1,6,6*%
%TO.N,Net-(D2-A)*%
X141224000Y-84888500D03*
%TO.P,T1,7,7*%
%TO.N,GND*%
X146304000Y-84888500D03*
%TO.P,T1,8,8*%
%TO.N,/Drain*%
X151384000Y-84888500D03*
%TO.P,T1,9*%
%TO.N,N/C*%
X156464000Y-84888500D03*
%TO.P,T1,10,10*%
%TO.N,/BarP*%
X161544000Y-84888500D03*
%TD*%
D17*
%TO.P,U2,1,1*%
%TO.N,Net-(U3-Cath)*%
X134974500Y-115971000D03*
%TO.P,U2,2,2*%
%TO.N,Terra*%
X134974500Y-117871000D03*
%TO.P,U2,3,3*%
%TO.N,Net-(C10-Pad2)*%
X137074500Y-116921000D03*
%TD*%
D12*
%TO.P,R5,1,1*%
%TO.N,Net-(U3-Anode)*%
X132976500Y-115801500D03*
%TO.P,R5,2,2*%
%TO.N,Net-(U3-Cath)*%
X132976500Y-113976500D03*
%TD*%
D18*
%TO.P,C10,1,1*%
%TO.N,Net-(U3-Cath)*%
X140088500Y-114024000D03*
%TO.P,C10,2,2*%
%TO.N,Net-(C10-Pad2)*%
X140088500Y-117024000D03*
%TD*%
D10*
%TO.P,D1d1,1,K*%
%TO.N,Net-(D1d1-K)*%
X164000000Y-72500000D03*
D11*
%TO.P,D1d1,2,A*%
%TO.N,GND*%
X176700000Y-72500000D03*
%TD*%
D19*
%TO.P,V1,1,1*%
%TO.N,Net-(F1-Pad1)*%
X112050000Y-66040000D03*
D20*
%TO.P,V1,2,2*%
%TO.N,Net-(C3-Pad2)*%
X112050000Y-60960000D03*
%TD*%
D21*
%TO.P,D4,1,K*%
%TO.N,Net-(D4-K)*%
X161872000Y-104370000D03*
X161872000Y-106450000D03*
D22*
%TO.P,D4,3,A*%
%TO.N,Net-(D4-A)*%
X158067000Y-105410000D03*
%TD*%
D23*
%TO.P,C2,1,1*%
%TO.N,/Osc*%
X111213800Y-100163400D03*
%TO.P,C2,2,2*%
%TO.N,GND*%
X111213800Y-101563400D03*
%TD*%
D24*
%TO.P,IC1,1,NC_1*%
%TO.N,Net-(IC1-NC_1)*%
X128699800Y-100863400D03*
%TO.P,IC1,2,NC_2*%
X128699800Y-99593400D03*
%TO.P,IC1,3,NC_3*%
X128699800Y-98323400D03*
%TO.P,IC1,4,VDD*%
%TO.N,/Vdd*%
X128699800Y-97053400D03*
%TO.P,IC1,5,TOVL*%
%TO.N,/TOVL*%
X128699800Y-95783400D03*
%TO.P,IC1,6,COMP*%
%TO.N,/Cmp*%
X116039800Y-95783400D03*
%TO.P,IC1,7,OSC*%
%TO.N,/Osc*%
X116039800Y-97053400D03*
%TO.P,IC1,8,NC_4*%
%TO.N,Net-(IC1-NC_4)*%
X116039800Y-98323400D03*
%TO.P,IC1,9,NC_5*%
X116039800Y-99593400D03*
%TO.P,IC1,10,SOURCE*%
%TO.N,GND*%
X116039800Y-100863400D03*
D25*
%TO.P,IC1,11,DRAIN*%
%TO.N,/Drain*%
X122369800Y-98323400D03*
%TD*%
D15*
%TO.P,R1,1,1*%
%TO.N,/Vdd*%
X111213800Y-97029900D03*
%TO.P,R1,2,2*%
%TO.N,/Osc*%
X111213800Y-98854900D03*
%TD*%
D26*
%TO.P,C11,1,1*%
%TO.N,/Vout*%
X173024800Y-119436800D03*
%TO.P,C11,2,2*%
%TO.N,Terra*%
X173024800Y-113836800D03*
%TD*%
D27*
%TO.P,U3,1,Anode*%
%TO.N,Net-(U3-Anode)*%
X121262300Y-116280000D03*
%TO.P,U3,2,Cath*%
%TO.N,Net-(U3-Cath)*%
X123802300Y-116280000D03*
%TO.P,U3,3,Emitter*%
%TO.N,GND*%
X123802300Y-107720000D03*
%TO.P,U3,4,Collector*%
%TO.N,/Cmp*%
X121262300Y-107720000D03*
%TD*%
D28*
%TO.P,R4,1,1*%
%TO.N,/BarP*%
X161595000Y-78500000D03*
D29*
%TO.P,R4,2,2*%
%TO.N,Net-(D3-K)*%
X131115000Y-78500000D03*
%TD*%
D10*
%TO.P,D1d4,1,K*%
%TO.N,Net-(D1d2-A)*%
X164000000Y-57500000D03*
D11*
%TO.P,D1d4,2,A*%
%TO.N,GND*%
X176700000Y-57500000D03*
%TD*%
D28*
%TO.P,C3,1,1*%
%TO.N,Net-(C3-Pad1)*%
X130700000Y-68850000D03*
%TO.P,C3,2,2*%
%TO.N,Net-(C3-Pad2)*%
X130700000Y-53850000D03*
%TD*%
D19*
%TO.P,V2,1,1*%
%TO.N,/Vout*%
X182245000Y-119507000D03*
D20*
%TO.P,V2,2,2*%
%TO.N,Terra*%
X182245000Y-114427000D03*
%TD*%
D28*
%TO.P,C3b1,1,1*%
%TO.N,/BarP*%
X124800000Y-73550000D03*
%TO.P,C3b1,2,2*%
%TO.N,Net-(D3-K)*%
X109800000Y-73550000D03*
%TD*%
D30*
%TO.P,L2,1*%
%TO.N,Net-(D4-K)*%
X162179000Y-110562000D03*
%TO.P,L2,2*%
%TO.N,/Vout*%
X162179000Y-119562000D03*
%TD*%
D31*
%TO.P,D2,1,K*%
%TO.N,Net-(D2-K)*%
X118745000Y-86360000D03*
D32*
%TO.P,D2,2,A*%
%TO.N,Net-(D2-A)*%
X126365000Y-86360000D03*
%TD*%
D33*
%TO.P,REF\u002A\u002A,*%
%TO.N,*%
X112000000Y-113500000D03*
%TD*%
%TO.P,REF\u002A\u002A,*%
%TO.N,*%
X117000000Y-51500000D03*
%TD*%
D34*
%TO.P,C6,1,1*%
%TO.N,/TOVL*%
X132422800Y-95783400D03*
%TO.P,C6,2,2*%
%TO.N,GND*%
X132422800Y-92943400D03*
%TD*%
D35*
%TO.P,C7,1,1*%
%TO.N,/BarP*%
X173487246Y-82500000D03*
D28*
%TO.P,C7,2,2*%
%TO.N,GND*%
X180987246Y-82500000D03*
%TD*%
D36*
%TO.P,D3,1,K*%
%TO.N,Net-(D3-K)*%
X118745000Y-82000000D03*
D37*
%TO.P,D3,2,A*%
%TO.N,/Drain*%
X126365000Y-82000000D03*
%TD*%
D12*
%TO.P,R3,1,1*%
%TO.N,/Vdd*%
X111213800Y-95449400D03*
%TO.P,R3,2,2*%
%TO.N,Net-(D2-K)*%
X111213800Y-93624400D03*
%TD*%
%TO.P,R6,1,1*%
%TO.N,Net-(D4-K)*%
X132849500Y-121286000D03*
%TO.P,R6,2,2*%
%TO.N,Net-(U3-Anode)*%
X132849500Y-119461000D03*
%TD*%
D38*
%TO.P,C4,1,1*%
%TO.N,Net-(C4-Pad1)*%
X114300000Y-105450000D03*
%TO.P,C4,2,2*%
%TO.N,GND*%
X114300000Y-108250000D03*
%TD*%
D39*
%TO.P,F1,1,1*%
%TO.N,Net-(F1-Pad1)*%
X117750000Y-66110000D03*
%TO.P,F1,2,2*%
%TO.N,Net-(C3-Pad1)*%
X126250000Y-66110000D03*
%TD*%
D33*
%TO.P,REF\u002A\u002A,*%
%TO.N,*%
X175500000Y-54000000D03*
%TD*%
D40*
%TO.P,C5,1,1*%
%TO.N,GND*%
X174500000Y-92500000D03*
%TO.P,C5,2,2*%
%TO.N,Terra*%
X179500000Y-92500000D03*
%TD*%
D28*
%TO.P,L1,1,1*%
%TO.N,Net-(C3-Pad2)*%
X138975000Y-57225000D03*
D29*
%TO.P,L1,2,2*%
%TO.N,Net-(D1d2-A)*%
X153975000Y-57225000D03*
D28*
%TO.P,L1,3,3*%
%TO.N,Net-(C3-Pad1)*%
X138975000Y-67225000D03*
D29*
%TO.P,L1,4,4*%
%TO.N,Net-(D1d1-K)*%
X153975000Y-67225000D03*
%TD*%
D15*
%TO.P,R7,1,1*%
%TO.N,/Vout*%
X143009500Y-115119500D03*
%TO.P,R7,2,2*%
%TO.N,Net-(C10-Pad2)*%
X143009500Y-116944500D03*
%TD*%
D41*
%TO.N,/Drain*%
X122400000Y-92000000D03*
%TO.N,/Cmp*%
X109054800Y-102514400D03*
X113626800Y-94132400D03*
%TO.N,/Vdd*%
X132803800Y-98069400D03*
X113499800Y-95529400D03*
%TO.N,Net-(D2-K)*%
X112900000Y-91950000D03*
%TO.N,Net-(D4-K)*%
X145000000Y-120000000D03*
X156000000Y-110500000D03*
%TO.N,/Vout*%
X148750000Y-116250000D03*
%TD*%
D42*
%TO.N,GND*%
X117769800Y-103973400D02*
X116039800Y-102243400D01*
X133146600Y-92943400D02*
X132422800Y-92943400D01*
X142750000Y-89880000D02*
X136210000Y-89880000D01*
X146304000Y-86326000D02*
X142750000Y-89880000D01*
X123802300Y-107720000D02*
X124850257Y-107720000D01*
X134257800Y-94778400D02*
X132422800Y-92943400D01*
X134257800Y-98312457D02*
X134257800Y-94778400D01*
X116039800Y-102243400D02*
X116039800Y-100863400D01*
X115745000Y-109695000D02*
X122271846Y-109695000D01*
X114300000Y-108250000D02*
X115745000Y-109695000D01*
X122271846Y-109695000D02*
X123802300Y-108164546D01*
X136210000Y-89880000D02*
X133146600Y-92943400D01*
X123802300Y-108164546D02*
X123802300Y-107720000D01*
X116039800Y-100863400D02*
X115339800Y-101563400D01*
X124850257Y-107720000D02*
X134257800Y-98312457D01*
X128596856Y-103973400D02*
X117769800Y-103973400D01*
X146304000Y-84888500D02*
X146304000Y-86326000D01*
X129110128Y-103460128D02*
X128596856Y-103973400D01*
X115339800Y-101563400D02*
X111213800Y-101563400D01*
%TO.N,/Drain*%
X122400000Y-92000000D02*
X122400000Y-98293200D01*
X122400000Y-98293200D02*
X122369800Y-98323400D01*
%TO.N,/Cmp*%
X111213800Y-103633900D02*
X110174300Y-103633900D01*
X110174300Y-103633900D02*
X109054800Y-102514400D01*
X115733244Y-103633900D02*
X111213800Y-103633900D01*
X116039800Y-95783400D02*
X114388800Y-94132400D01*
X121262300Y-107720000D02*
X119819344Y-107720000D01*
X114388800Y-94132400D02*
X113626800Y-94132400D01*
X119819344Y-107720000D02*
X115733244Y-103633900D01*
%TO.N,/Osc*%
X111213800Y-98854900D02*
X111213800Y-100163400D01*
X113536074Y-97053400D02*
X111734574Y-98854900D01*
X111734574Y-98854900D02*
X111213800Y-98854900D01*
X116039800Y-97053400D02*
X113536074Y-97053400D01*
%TO.N,/Vdd*%
X111213800Y-95529400D02*
X111213800Y-97029900D01*
X130587800Y-97053400D02*
X131603800Y-98069400D01*
X131603800Y-98069400D02*
X132803800Y-98069400D01*
X113499800Y-95529400D02*
X111213800Y-95529400D01*
X128699800Y-97053400D02*
X130587800Y-97053400D01*
X111213800Y-97029900D02*
X111213800Y-95449400D01*
%TO.N,/TOVL*%
X128699800Y-95783400D02*
X132549800Y-95783400D01*
%TO.N,Net-(C10-Pad2)*%
X140088500Y-119461000D02*
X140088500Y-117024000D01*
X137074500Y-116921000D02*
X139985500Y-116921000D01*
X140168000Y-116944500D02*
X140088500Y-117024000D01*
X143009500Y-116944500D02*
X140168000Y-116944500D01*
X139985500Y-116921000D02*
X140088500Y-117024000D01*
%TO.N,Net-(U3-Cath)*%
X134974500Y-115971000D02*
X134974500Y-113976500D01*
X132298500Y-113976500D02*
X129995000Y-116280000D01*
X132976500Y-113976500D02*
X140041000Y-113976500D01*
X129995000Y-116280000D02*
X123802300Y-116280000D01*
X134974500Y-113976500D02*
X132976500Y-113976500D01*
X140041000Y-113976500D02*
X140088500Y-114024000D01*
X133000000Y-114000000D02*
X132976500Y-113976500D01*
X132976500Y-113976500D02*
X132298500Y-113976500D01*
%TO.N,Terra*%
X179500000Y-92500000D02*
X179500000Y-97300000D01*
D43*
X182245000Y-114427000D02*
X173615000Y-114427000D01*
D42*
X138389500Y-121286000D02*
X140088500Y-121286000D01*
D43*
X173615000Y-114427000D02*
X173024800Y-113836800D01*
D42*
X137977000Y-120873500D02*
X134974500Y-117871000D01*
X141021774Y-120873500D02*
X137977000Y-120873500D01*
X134974500Y-117871000D02*
X138389500Y-121286000D01*
X179500000Y-97300000D02*
X182000000Y-99800000D01*
X182245000Y-102395000D02*
X182245000Y-113937000D01*
X150509100Y-118500000D02*
X143395274Y-118500000D01*
X155172300Y-113836800D02*
X150509100Y-118500000D01*
X182245000Y-113937000D02*
X182000000Y-114182000D01*
X143395274Y-118500000D02*
X141021774Y-120873500D01*
D43*
X155172300Y-113836800D02*
X173024800Y-113836800D01*
X141224000Y-99888500D02*
X155172300Y-113836800D01*
D42*
%TO.N,Net-(U3-Anode)*%
X121262300Y-116724546D02*
X123998754Y-119461000D01*
X123998754Y-119461000D02*
X132849500Y-119461000D01*
X132328726Y-119461000D02*
X132849500Y-119461000D01*
X132849500Y-115928500D02*
X132976500Y-115801500D01*
X121262300Y-116280000D02*
X121262300Y-116724546D01*
X132849500Y-119461000D02*
X132849500Y-115928500D01*
%TO.N,Net-(C4-Pad1)*%
X111213800Y-105458900D02*
X114291100Y-105458900D01*
X114291100Y-105458900D02*
X114300000Y-105450000D01*
%TO.N,Net-(D2-K)*%
X111213800Y-93624400D02*
X111225600Y-93624400D01*
X111225600Y-93624400D02*
X112900000Y-91950000D01*
X118682200Y-86360000D02*
X118745000Y-86360000D01*
%TO.N,Net-(D4-K)*%
X142610000Y-122890000D02*
X145000000Y-120500000D01*
X145000000Y-120500000D02*
X145000000Y-120000000D01*
D43*
X161872000Y-110255000D02*
X162179000Y-110562000D01*
D42*
X134453500Y-122890000D02*
X132849500Y-121286000D01*
X142610000Y-122890000D02*
X134453500Y-122890000D01*
X156000000Y-110500000D02*
X157000000Y-110500000D01*
D43*
X172100000Y-102150000D02*
X164092000Y-102150000D01*
D42*
X157062000Y-110562000D02*
X162179000Y-110562000D01*
D43*
X161872000Y-106450000D02*
X161872000Y-110255000D01*
D42*
X157000000Y-110500000D02*
X157062000Y-110562000D01*
D43*
X164092000Y-102150000D02*
X161872000Y-104370000D01*
X161872000Y-104370000D02*
X161872000Y-106450000D01*
%TO.N,/Vout*%
X173029000Y-119562000D02*
X173101000Y-119634000D01*
X182245000Y-119507000D02*
X173228000Y-119507000D01*
D42*
X147617600Y-115117600D02*
X143011400Y-115117600D01*
D43*
X162179000Y-119562000D02*
X173029000Y-119562000D01*
X143011400Y-115117600D02*
X143009500Y-115119500D01*
D42*
X148750000Y-116250000D02*
X147617600Y-115117600D01*
D43*
X173228000Y-119507000D02*
X173101000Y-119634000D01*
%TO.N,Net-(D4-A)*%
X158067000Y-101491500D02*
X156464000Y-99888500D01*
X158067000Y-105410000D02*
X158067000Y-101491500D01*
D42*
%TO.N,Net-(IC1-NC_1)*%
X128699800Y-98323400D02*
X128699800Y-100863400D01*
%TO.N,Net-(IC1-NC_4)*%
X116039800Y-98323400D02*
X116039800Y-99593400D01*
%TD*%
%TA.AperFunction,Conductor*%
%TO.N,GND*%
G36*
X135943039Y-90019685D02*
G01*
X135988794Y-90072489D01*
X136000000Y-90124000D01*
X136000000Y-95576487D01*
X135986485Y-95632782D01*
X135909434Y-95784003D01*
X135909433Y-95784005D01*
X135909432Y-95784008D01*
X135895335Y-95827395D01*
X135836446Y-96008631D01*
X135799500Y-96241902D01*
X135799500Y-101343862D01*
X135779815Y-101410901D01*
X135762191Y-101432523D01*
X127036142Y-109964661D01*
X126974446Y-109997455D01*
X126949451Y-110000000D01*
X112047145Y-110000000D01*
X111980106Y-109980315D01*
X111964764Y-109968679D01*
X110658825Y-108807844D01*
X112440000Y-108807844D01*
X112446401Y-108867372D01*
X112446403Y-108867379D01*
X112496645Y-109002086D01*
X112496649Y-109002093D01*
X112582809Y-109117187D01*
X112582812Y-109117190D01*
X112697906Y-109203350D01*
X112697913Y-109203354D01*
X112832620Y-109253596D01*
X112832627Y-109253598D01*
X112892155Y-109259999D01*
X112892172Y-109260000D01*
X114050000Y-109260000D01*
X114550000Y-109260000D01*
X115707828Y-109260000D01*
X115707844Y-109259999D01*
X115767372Y-109253598D01*
X115767379Y-109253596D01*
X115902086Y-109203354D01*
X115902093Y-109203350D01*
X116017187Y-109117190D01*
X116017190Y-109117187D01*
X116103350Y-109002093D01*
X116103354Y-109002086D01*
X116153596Y-108867379D01*
X116153598Y-108867372D01*
X116159999Y-108807844D01*
X116160000Y-108807827D01*
X116160000Y-108500000D01*
X114550000Y-108500000D01*
X114550000Y-109260000D01*
X114050000Y-109260000D01*
X114050000Y-108500000D01*
X112440000Y-108500000D01*
X112440000Y-108807844D01*
X110658825Y-108807844D01*
X109403675Y-107692155D01*
X112440000Y-107692155D01*
X112440000Y-108000000D01*
X114050000Y-108000000D01*
X114550000Y-108000000D01*
X116160000Y-108000000D01*
X116160000Y-107692172D01*
X116159999Y-107692155D01*
X116153598Y-107632627D01*
X116153596Y-107632620D01*
X116103354Y-107497913D01*
X116103350Y-107497906D01*
X116017190Y-107382812D01*
X116017187Y-107382809D01*
X115902093Y-107296649D01*
X115902086Y-107296645D01*
X115767379Y-107246403D01*
X115767372Y-107246401D01*
X115707844Y-107240000D01*
X114550000Y-107240000D01*
X114550000Y-108000000D01*
X114050000Y-108000000D01*
X114050000Y-107240000D01*
X112892155Y-107240000D01*
X112832627Y-107246401D01*
X112832620Y-107246403D01*
X112697913Y-107296645D01*
X112697906Y-107296649D01*
X112582812Y-107382809D01*
X112582809Y-107382812D01*
X112496649Y-107497906D01*
X112496645Y-107497913D01*
X112446403Y-107632620D01*
X112446401Y-107632627D01*
X112440000Y-107692155D01*
X109403675Y-107692155D01*
X107541619Y-106036994D01*
X107504591Y-105977743D01*
X107500000Y-105944315D01*
X107500000Y-102514399D01*
X108149340Y-102514399D01*
X108153621Y-102555131D01*
X108154300Y-102568092D01*
X108154300Y-102603092D01*
X108162439Y-102644014D01*
X108164141Y-102655239D01*
X108168794Y-102699500D01*
X108169126Y-102702656D01*
X108179115Y-102733400D01*
X108179703Y-102735207D01*
X108183387Y-102749327D01*
X108187103Y-102768005D01*
X108188905Y-102777065D01*
X108188906Y-102777070D01*
X108207441Y-102821817D01*
X108210811Y-102830950D01*
X108227620Y-102882682D01*
X108241371Y-102906500D01*
X108248543Y-102921044D01*
X108256786Y-102940944D01*
X108256788Y-102940947D01*
X108287426Y-102986802D01*
X108291710Y-102993690D01*
X108322267Y-103046616D01*
X108336155Y-103062040D01*
X108347107Y-103076121D01*
X108355335Y-103088435D01*
X108399083Y-103132183D01*
X108403552Y-103136892D01*
X108448929Y-103187288D01*
X108460267Y-103195525D01*
X108475061Y-103208161D01*
X109600266Y-104333366D01*
X109659336Y-104372833D01*
X109659339Y-104372836D01*
X109675064Y-104383343D01*
X109747753Y-104431913D01*
X109829693Y-104465853D01*
X109911634Y-104499795D01*
X109987715Y-104514928D01*
X110049624Y-104547312D01*
X110084199Y-104608027D01*
X110080460Y-104677797D01*
X110060172Y-104714230D01*
X110042957Y-104735646D01*
X109960764Y-104901376D01*
X109960763Y-104901378D01*
X109916117Y-105080900D01*
X109913300Y-105122448D01*
X109913300Y-105795351D01*
X109916117Y-105836899D01*
X109960763Y-106016421D01*
X109960764Y-106016423D01*
X110042956Y-106182150D01*
X110158859Y-106326340D01*
X110199988Y-106359400D01*
X110303047Y-106442242D01*
X110468779Y-106524437D01*
X110648301Y-106569082D01*
X110648302Y-106569082D01*
X110648305Y-106569083D01*
X110689846Y-106571900D01*
X110689848Y-106571900D01*
X111737752Y-106571900D01*
X111737754Y-106571900D01*
X111779295Y-106569083D01*
X111958821Y-106524437D01*
X112124553Y-106442242D01*
X112154914Y-106417837D01*
X112193585Y-106386753D01*
X112258168Y-106360094D01*
X112271272Y-106359400D01*
X112431986Y-106359400D01*
X112499025Y-106379085D01*
X112507472Y-106385024D01*
X112637157Y-106484535D01*
X112637158Y-106484535D01*
X112637159Y-106484536D01*
X112783238Y-106545044D01*
X112900639Y-106560500D01*
X115699360Y-106560499D01*
X115699363Y-106560499D01*
X115816753Y-106545046D01*
X115816757Y-106545044D01*
X115816762Y-106545044D01*
X115962841Y-106484536D01*
X116088282Y-106388282D01*
X116184536Y-106262841D01*
X116245044Y-106116762D01*
X116260500Y-105999361D01*
X116260499Y-105734015D01*
X116280183Y-105666978D01*
X116332987Y-105621223D01*
X116402146Y-105611279D01*
X116465701Y-105640304D01*
X116472180Y-105646336D01*
X119245310Y-108419466D01*
X119304380Y-108458933D01*
X119304383Y-108458936D01*
X119365839Y-108500000D01*
X119392797Y-108518013D01*
X119474737Y-108551953D01*
X119556678Y-108585895D01*
X119730647Y-108620499D01*
X119730651Y-108620500D01*
X119730652Y-108620500D01*
X119730653Y-108620500D01*
X119807200Y-108620500D01*
X119874239Y-108640185D01*
X119919994Y-108692989D01*
X119930420Y-108730617D01*
X119936648Y-108785893D01*
X119995111Y-108952973D01*
X120038586Y-109022162D01*
X120089286Y-109102850D01*
X120214450Y-109228014D01*
X120364328Y-109322189D01*
X120531404Y-109380651D01*
X120531407Y-109380652D01*
X120610811Y-109389598D01*
X120663191Y-109395500D01*
X121861408Y-109395499D01*
X121861410Y-109395499D01*
X121861411Y-109395498D01*
X121993196Y-109380651D01*
X122160272Y-109322189D01*
X122310150Y-109228014D01*
X122435314Y-109102850D01*
X122486014Y-109022160D01*
X122538347Y-108975871D01*
X122607401Y-108965222D01*
X122671249Y-108993597D01*
X122697122Y-109023981D01*
X122704119Y-109035556D01*
X122821741Y-109153178D01*
X122964105Y-109239240D01*
X122964104Y-109239240D01*
X123122917Y-109288727D01*
X123122915Y-109288727D01*
X123191939Y-109294999D01*
X123552299Y-109294999D01*
X124052300Y-109294999D01*
X124412669Y-109294999D01*
X124481675Y-109288729D01*
X124481682Y-109288727D01*
X124640495Y-109239240D01*
X124782858Y-109153178D01*
X124900478Y-109035558D01*
X124986540Y-108893195D01*
X125036027Y-108734383D01*
X125042300Y-108665360D01*
X125042300Y-107970000D01*
X124052300Y-107970000D01*
X124052300Y-109294999D01*
X123552299Y-109294999D01*
X123552300Y-109294998D01*
X123552300Y-107470000D01*
X124052300Y-107470000D01*
X125042299Y-107470000D01*
X125042299Y-106774629D01*
X125036029Y-106705624D01*
X125036027Y-106705617D01*
X124986540Y-106546804D01*
X124900478Y-106404441D01*
X124782858Y-106286821D01*
X124640494Y-106200759D01*
X124640495Y-106200759D01*
X124481682Y-106151272D01*
X124481684Y-106151272D01*
X124412660Y-106145000D01*
X124052300Y-106145000D01*
X124052300Y-107470000D01*
X123552300Y-107470000D01*
X123552300Y-106145000D01*
X123191929Y-106145000D01*
X123122924Y-106151270D01*
X123122917Y-106151272D01*
X122964104Y-106200759D01*
X122821741Y-106286821D01*
X122704122Y-106404440D01*
X122704119Y-106404444D01*
X122697121Y-106416020D01*
X122645590Y-106463205D01*
X122576730Y-106475040D01*
X122512403Y-106447768D01*
X122486013Y-106417837D01*
X122435314Y-106337150D01*
X122310150Y-106211986D01*
X122262671Y-106182153D01*
X122160274Y-106117812D01*
X122160273Y-106117811D01*
X122160272Y-106117811D01*
X122104580Y-106098323D01*
X121993192Y-106059347D01*
X121861413Y-106044500D01*
X120663189Y-106044500D01*
X120663185Y-106044501D01*
X120531406Y-106059348D01*
X120364326Y-106117811D01*
X120214449Y-106211986D01*
X120089286Y-106337149D01*
X120089284Y-106337152D01*
X120025650Y-106438424D01*
X119973315Y-106484715D01*
X119904262Y-106495362D01*
X119840414Y-106466987D01*
X119832976Y-106460132D01*
X116307283Y-102934438D01*
X116307275Y-102934432D01*
X116229827Y-102882683D01*
X116229826Y-102882683D01*
X116159788Y-102835885D01*
X116159786Y-102835884D01*
X116077851Y-102801946D01*
X116077850Y-102801946D01*
X115995910Y-102768005D01*
X115995902Y-102768003D01*
X115821940Y-102733400D01*
X115821936Y-102733400D01*
X115821935Y-102733400D01*
X112271272Y-102733400D01*
X112204233Y-102713715D01*
X112193585Y-102706047D01*
X112124553Y-102650557D01*
X111993732Y-102585677D01*
X111942419Y-102538256D01*
X111924889Y-102470621D01*
X111946709Y-102404246D01*
X111974515Y-102375322D01*
X112060991Y-102310586D01*
X112147150Y-102195493D01*
X112147154Y-102195486D01*
X112197396Y-102060779D01*
X112197398Y-102060772D01*
X112203799Y-102001244D01*
X112203800Y-102001227D01*
X112203800Y-101813400D01*
X110223800Y-101813400D01*
X110223800Y-102001244D01*
X110230201Y-102060772D01*
X110230203Y-102060782D01*
X110242484Y-102093708D01*
X110247468Y-102163399D01*
X110213982Y-102224722D01*
X110152659Y-102258206D01*
X110082967Y-102253221D01*
X110038621Y-102224721D01*
X109710515Y-101896615D01*
X109706045Y-101891905D01*
X109660675Y-101841515D01*
X109660671Y-101841512D01*
X109649331Y-101833273D01*
X109634538Y-101820638D01*
X109628836Y-101814936D01*
X109628832Y-101814933D01*
X109628831Y-101814932D01*
X109571821Y-101776839D01*
X109567828Y-101774057D01*
X109544777Y-101757310D01*
X109507530Y-101730249D01*
X109500881Y-101727288D01*
X109482436Y-101717116D01*
X109481822Y-101716705D01*
X109481346Y-101716387D01*
X109445259Y-101701439D01*
X109411784Y-101687573D01*
X109408839Y-101686307D01*
X109334604Y-101653256D01*
X109334418Y-101653216D01*
X109334094Y-101653147D01*
X109323432Y-101649837D01*
X109323300Y-101650274D01*
X109317467Y-101648505D01*
X109237022Y-101632503D01*
X109235433Y-101632176D01*
X109149450Y-101613900D01*
X109149446Y-101613900D01*
X108960154Y-101613900D01*
X108874106Y-101632189D01*
X108872517Y-101632515D01*
X108792133Y-101648504D01*
X108786308Y-101650271D01*
X108786178Y-101649843D01*
X108775526Y-101653143D01*
X108775002Y-101653254D01*
X108774998Y-101653255D01*
X108700771Y-101686302D01*
X108697794Y-101687581D01*
X108628253Y-101716388D01*
X108628250Y-101716389D01*
X108627142Y-101717130D01*
X108608721Y-101727286D01*
X108602079Y-101730243D01*
X108602073Y-101730247D01*
X108541793Y-101774041D01*
X108537804Y-101776821D01*
X108480767Y-101814933D01*
X108480755Y-101814943D01*
X108475051Y-101820647D01*
X108460268Y-101833272D01*
X108448936Y-101841505D01*
X108448926Y-101841514D01*
X108403551Y-101891907D01*
X108399086Y-101896612D01*
X108355339Y-101940360D01*
X108355332Y-101940368D01*
X108347108Y-101952677D01*
X108336161Y-101966752D01*
X108322268Y-101982182D01*
X108322267Y-101982183D01*
X108291707Y-102035113D01*
X108287426Y-102041997D01*
X108256787Y-102087854D01*
X108248542Y-102107757D01*
X108241375Y-102122290D01*
X108227620Y-102146116D01*
X108227618Y-102146121D01*
X108210810Y-102197849D01*
X108207442Y-102206980D01*
X108188905Y-102251733D01*
X108188903Y-102251741D01*
X108183388Y-102279467D01*
X108179702Y-102293593D01*
X108169126Y-102326143D01*
X108169125Y-102326146D01*
X108164141Y-102373560D01*
X108162439Y-102384784D01*
X108154300Y-102425707D01*
X108154300Y-102460706D01*
X108153621Y-102473666D01*
X108149340Y-102514399D01*
X107500000Y-102514399D01*
X107500000Y-93287948D01*
X109913300Y-93287948D01*
X109913300Y-93960851D01*
X109916117Y-94002399D01*
X109960763Y-94181921D01*
X109960764Y-94181923D01*
X110042956Y-94347650D01*
X110042957Y-94347651D01*
X110042958Y-94347653D01*
X110120659Y-94444316D01*
X110132633Y-94459212D01*
X110159292Y-94523796D01*
X110146802Y-94592540D01*
X110132633Y-94614588D01*
X110042956Y-94726149D01*
X109960764Y-94891876D01*
X109960763Y-94891878D01*
X109916117Y-95071400D01*
X109913300Y-95112948D01*
X109913300Y-95785851D01*
X109916117Y-95827399D01*
X109960763Y-96006921D01*
X109960764Y-96006923D01*
X110042957Y-96172652D01*
X110043093Y-96172865D01*
X110043136Y-96173013D01*
X110045945Y-96178677D01*
X110044930Y-96179180D01*
X110062615Y-96239952D01*
X110044945Y-96300127D01*
X110045945Y-96300623D01*
X110043137Y-96306284D01*
X110043093Y-96306435D01*
X110042957Y-96306647D01*
X109960764Y-96472376D01*
X109960763Y-96472378D01*
X109916117Y-96651900D01*
X109913300Y-96693448D01*
X109913300Y-97366351D01*
X109916117Y-97407899D01*
X109960763Y-97587421D01*
X109960764Y-97587423D01*
X110042956Y-97753150D01*
X110042957Y-97753151D01*
X110042958Y-97753153D01*
X110132633Y-97864712D01*
X110159292Y-97929296D01*
X110146802Y-97998040D01*
X110132634Y-98020085D01*
X110092995Y-98069399D01*
X110042956Y-98131649D01*
X109960764Y-98297376D01*
X109960763Y-98297378D01*
X109916117Y-98476900D01*
X109913300Y-98518448D01*
X109913300Y-99191351D01*
X109916117Y-99232899D01*
X109960763Y-99412421D01*
X109960764Y-99412423D01*
X110042955Y-99578148D01*
X110042956Y-99578149D01*
X110042958Y-99578153D01*
X110096445Y-99644694D01*
X110123104Y-99709276D01*
X110123533Y-99730488D01*
X110123300Y-99734043D01*
X110123300Y-100592763D01*
X110138753Y-100710153D01*
X110138757Y-100710165D01*
X110199261Y-100856236D01*
X110199264Y-100856241D01*
X110230930Y-100897509D01*
X110256124Y-100962678D01*
X110248737Y-101016326D01*
X110230203Y-101066020D01*
X110230201Y-101066027D01*
X110223800Y-101125555D01*
X110223800Y-101313400D01*
X112203800Y-101313400D01*
X112203800Y-101226244D01*
X114314800Y-101226244D01*
X114321201Y-101285772D01*
X114321203Y-101285779D01*
X114371445Y-101420486D01*
X114371449Y-101420493D01*
X114457609Y-101535587D01*
X114457612Y-101535590D01*
X114572706Y-101621750D01*
X114572713Y-101621754D01*
X114707420Y-101671996D01*
X114707427Y-101671998D01*
X114766955Y-101678399D01*
X114766972Y-101678400D01*
X115789800Y-101678400D01*
X116289800Y-101678400D01*
X117312628Y-101678400D01*
X117312644Y-101678399D01*
X117372172Y-101671998D01*
X117372179Y-101671996D01*
X117506886Y-101621754D01*
X117506893Y-101621750D01*
X117621987Y-101535590D01*
X117621990Y-101535587D01*
X117708150Y-101420493D01*
X117708154Y-101420486D01*
X117758396Y-101285779D01*
X117758398Y-101285772D01*
X117764799Y-101226244D01*
X117764800Y-101226227D01*
X117764800Y-101113400D01*
X116289800Y-101113400D01*
X116289800Y-101678400D01*
X115789800Y-101678400D01*
X115789800Y-101113400D01*
X114314800Y-101113400D01*
X114314800Y-101226244D01*
X112203800Y-101226244D01*
X112203800Y-101125572D01*
X112203799Y-101125555D01*
X112197397Y-101066022D01*
X112197397Y-101066020D01*
X112178863Y-101016330D01*
X112173877Y-100946639D01*
X112196666Y-100897513D01*
X112228336Y-100856241D01*
X112288844Y-100710162D01*
X112304300Y-100592761D01*
X112304299Y-99734040D01*
X112304297Y-99734028D01*
X112304066Y-99730503D01*
X112319317Y-99662318D01*
X112331145Y-99644703D01*
X112384642Y-99578153D01*
X112466837Y-99412421D01*
X112466838Y-99412413D01*
X112466878Y-99412309D01*
X112466944Y-99412204D01*
X112469825Y-99406397D01*
X112470456Y-99406710D01*
X112495593Y-99367379D01*
X113872754Y-97990219D01*
X113934077Y-97956734D01*
X113960435Y-97953900D01*
X114090300Y-97953900D01*
X114157339Y-97973585D01*
X114203094Y-98026389D01*
X114214300Y-98077900D01*
X114214300Y-98677763D01*
X114229753Y-98795153D01*
X114229756Y-98795162D01*
X114277715Y-98910948D01*
X114285184Y-98980417D01*
X114277715Y-99005852D01*
X114229757Y-99121634D01*
X114229755Y-99121639D01*
X114214300Y-99239038D01*
X114214300Y-99947763D01*
X114229753Y-100065153D01*
X114229756Y-100065162D01*
X114290264Y-100211242D01*
X114326950Y-100259052D01*
X114352144Y-100324221D01*
X114344756Y-100377871D01*
X114321203Y-100441019D01*
X114321201Y-100441027D01*
X114314800Y-100500555D01*
X114314800Y-100613400D01*
X117764800Y-100613400D01*
X117764800Y-100500572D01*
X117764799Y-100500555D01*
X117758398Y-100441027D01*
X117758396Y-100441020D01*
X117734843Y-100377870D01*
X117729859Y-100308179D01*
X117752649Y-100259052D01*
X117789336Y-100211241D01*
X117830741Y-100111279D01*
X117874579Y-100056881D01*
X117940873Y-100034815D01*
X118008572Y-100052094D01*
X118056183Y-100103230D01*
X118069300Y-100158736D01*
X118069300Y-103112763D01*
X118084753Y-103230153D01*
X118084756Y-103230162D01*
X118145264Y-103376241D01*
X118241518Y-103501682D01*
X118366959Y-103597936D01*
X118513038Y-103658444D01*
X118630439Y-103673900D01*
X126109160Y-103673899D01*
X126109163Y-103673899D01*
X126226553Y-103658446D01*
X126226557Y-103658444D01*
X126226562Y-103658444D01*
X126372641Y-103597936D01*
X126498082Y-103501682D01*
X126594336Y-103376241D01*
X126654844Y-103230162D01*
X126670300Y-103112761D01*
X126670299Y-101428734D01*
X126689984Y-101361698D01*
X126742787Y-101315943D01*
X126811946Y-101305999D01*
X126875502Y-101335024D01*
X126908860Y-101381284D01*
X126950264Y-101481241D01*
X127046518Y-101606682D01*
X127171959Y-101702936D01*
X127318038Y-101763444D01*
X127435439Y-101778900D01*
X129964160Y-101778899D01*
X129964163Y-101778899D01*
X130081553Y-101763446D01*
X130081557Y-101763444D01*
X130081562Y-101763444D01*
X130227641Y-101702936D01*
X130353082Y-101606682D01*
X130449336Y-101481241D01*
X130509844Y-101335162D01*
X130525300Y-101217761D01*
X130525299Y-100509040D01*
X130525299Y-100509039D01*
X130525299Y-100509036D01*
X130509846Y-100391646D01*
X130509844Y-100391641D01*
X130509844Y-100391638D01*
X130461883Y-100275852D01*
X130454415Y-100206383D01*
X130461884Y-100180947D01*
X130471084Y-100158736D01*
X130509844Y-100065162D01*
X130525300Y-99947761D01*
X130525299Y-99239040D01*
X130525299Y-99239038D01*
X130525299Y-99239036D01*
X130509846Y-99121646D01*
X130509844Y-99121639D01*
X130509844Y-99121638D01*
X130461883Y-99005852D01*
X130454415Y-98936383D01*
X130461884Y-98910947D01*
X130509844Y-98795162D01*
X130525300Y-98677761D01*
X130525299Y-98563760D01*
X130544983Y-98496723D01*
X130597787Y-98450968D01*
X130666945Y-98441024D01*
X130730501Y-98470048D01*
X130736980Y-98476081D01*
X131029762Y-98768863D01*
X131039701Y-98775503D01*
X131069122Y-98795162D01*
X131177253Y-98867413D01*
X131249734Y-98897435D01*
X131249735Y-98897436D01*
X131282354Y-98910947D01*
X131341134Y-98935295D01*
X131457293Y-98958400D01*
X131515103Y-98969899D01*
X131515107Y-98969900D01*
X131515108Y-98969900D01*
X132898445Y-98969900D01*
X132898446Y-98969900D01*
X132984546Y-98951598D01*
X132985980Y-98951302D01*
X133066466Y-98935294D01*
X133066469Y-98935292D01*
X133066472Y-98935292D01*
X133072296Y-98933526D01*
X133072431Y-98933973D01*
X133083115Y-98930647D01*
X133083603Y-98930544D01*
X133157857Y-98897482D01*
X133160755Y-98896237D01*
X133230347Y-98867413D01*
X133231433Y-98866687D01*
X133249895Y-98856504D01*
X133256530Y-98853551D01*
X133316854Y-98809722D01*
X133320752Y-98807005D01*
X133377835Y-98768864D01*
X133383539Y-98763158D01*
X133398331Y-98750526D01*
X133409671Y-98742288D01*
X133455074Y-98691861D01*
X133459487Y-98687210D01*
X133503264Y-98643435D01*
X133511487Y-98631127D01*
X133522442Y-98617043D01*
X133536331Y-98601618D01*
X133536330Y-98601618D01*
X133536333Y-98601616D01*
X133566891Y-98548684D01*
X133571168Y-98541808D01*
X133601813Y-98495947D01*
X133610059Y-98476037D01*
X133617233Y-98461491D01*
X133629051Y-98441024D01*
X133630979Y-98437684D01*
X133647795Y-98385928D01*
X133651151Y-98376831D01*
X133669694Y-98332066D01*
X133675211Y-98304327D01*
X133678894Y-98290213D01*
X133689474Y-98257656D01*
X133694456Y-98210237D01*
X133696161Y-98199004D01*
X133704300Y-98158095D01*
X133704300Y-98123092D01*
X133704979Y-98110131D01*
X133709260Y-98069400D01*
X133704979Y-98028666D01*
X133704300Y-98015706D01*
X133704300Y-97980709D01*
X133701978Y-97969039D01*
X133696158Y-97939783D01*
X133694456Y-97928556D01*
X133691176Y-97897340D01*
X133689474Y-97881144D01*
X133678894Y-97848583D01*
X133675209Y-97834459D01*
X133669695Y-97806739D01*
X133669694Y-97806738D01*
X133669694Y-97806734D01*
X133651152Y-97761969D01*
X133647790Y-97752855D01*
X133630981Y-97701120D01*
X133630979Y-97701116D01*
X133617224Y-97677292D01*
X133610056Y-97662755D01*
X133601814Y-97642856D01*
X133601813Y-97642854D01*
X133601813Y-97642853D01*
X133571159Y-97596977D01*
X133566888Y-97590108D01*
X133536334Y-97537185D01*
X133536330Y-97537180D01*
X133522437Y-97521750D01*
X133511484Y-97507668D01*
X133503264Y-97495365D01*
X133459524Y-97451625D01*
X133455055Y-97446916D01*
X133409671Y-97396512D01*
X133398328Y-97388271D01*
X133383537Y-97375638D01*
X133377835Y-97369936D01*
X133320808Y-97331831D01*
X133316816Y-97329049D01*
X133256530Y-97285249D01*
X133249892Y-97282293D01*
X133231443Y-97272119D01*
X133230351Y-97271389D01*
X133230346Y-97271386D01*
X133160793Y-97242577D01*
X133157810Y-97241295D01*
X133083606Y-97208256D01*
X133083597Y-97208253D01*
X133083085Y-97208145D01*
X133072426Y-97204838D01*
X133072294Y-97205274D01*
X133066467Y-97203506D01*
X133066466Y-97203506D01*
X133066463Y-97203505D01*
X133066462Y-97203505D01*
X132986068Y-97187513D01*
X132984515Y-97187194D01*
X132898446Y-97168900D01*
X132898442Y-97168900D01*
X132028162Y-97168900D01*
X131961123Y-97149215D01*
X131940481Y-97132581D01*
X131918480Y-97110580D01*
X131884995Y-97049257D01*
X131889979Y-96979565D01*
X131931851Y-96923632D01*
X131997315Y-96899215D01*
X132006161Y-96898899D01*
X133397163Y-96898899D01*
X133514553Y-96883446D01*
X133514557Y-96883444D01*
X133514562Y-96883444D01*
X133660641Y-96822936D01*
X133786082Y-96726682D01*
X133882336Y-96601241D01*
X133942844Y-96455162D01*
X133958300Y-96337761D01*
X133958299Y-95229040D01*
X133958299Y-95229036D01*
X133942846Y-95111646D01*
X133942844Y-95111641D01*
X133942844Y-95111638D01*
X133882336Y-94965559D01*
X133786082Y-94840118D01*
X133660641Y-94743864D01*
X133617873Y-94726149D01*
X133514562Y-94683356D01*
X133514560Y-94683355D01*
X133397170Y-94667901D01*
X133397167Y-94667900D01*
X133397161Y-94667900D01*
X133397154Y-94667900D01*
X131448436Y-94667900D01*
X131331046Y-94683353D01*
X131331037Y-94683356D01*
X131184960Y-94743863D01*
X131184959Y-94743864D01*
X131059518Y-94840118D01*
X131059516Y-94840119D01*
X131059511Y-94840124D01*
X131053767Y-94845868D01*
X131051411Y-94843512D01*
X131007506Y-94875583D01*
X130965540Y-94882900D01*
X130086224Y-94882900D01*
X130070039Y-94881839D01*
X129964170Y-94867901D01*
X129964167Y-94867900D01*
X129964161Y-94867900D01*
X129964154Y-94867900D01*
X127435436Y-94867900D01*
X127318046Y-94883353D01*
X127318037Y-94883356D01*
X127171960Y-94943863D01*
X127046518Y-95040118D01*
X126950263Y-95165560D01*
X126908860Y-95265517D01*
X126865019Y-95319920D01*
X126798725Y-95341985D01*
X126731025Y-95324706D01*
X126683415Y-95273568D01*
X126670299Y-95218064D01*
X126670299Y-93534036D01*
X126666641Y-93506244D01*
X130987800Y-93506244D01*
X130994201Y-93565772D01*
X130994203Y-93565779D01*
X131044445Y-93700486D01*
X131044449Y-93700493D01*
X131130609Y-93815587D01*
X131130612Y-93815590D01*
X131245706Y-93901750D01*
X131245713Y-93901754D01*
X131380420Y-93951996D01*
X131380427Y-93951998D01*
X131439955Y-93958399D01*
X131439972Y-93958400D01*
X132172800Y-93958400D01*
X132672800Y-93958400D01*
X133405628Y-93958400D01*
X133405644Y-93958399D01*
X133465172Y-93951998D01*
X133465179Y-93951996D01*
X133599886Y-93901754D01*
X133599893Y-93901750D01*
X133714987Y-93815590D01*
X133714990Y-93815587D01*
X133801150Y-93700493D01*
X133801154Y-93700486D01*
X133851396Y-93565779D01*
X133851398Y-93565772D01*
X133857799Y-93506244D01*
X133857800Y-93506227D01*
X133857800Y-93193400D01*
X132672800Y-93193400D01*
X132672800Y-93958400D01*
X132172800Y-93958400D01*
X132172800Y-93193400D01*
X130987800Y-93193400D01*
X130987800Y-93506244D01*
X126666641Y-93506244D01*
X126654846Y-93416646D01*
X126654844Y-93416639D01*
X126654844Y-93416638D01*
X126594336Y-93270559D01*
X126498082Y-93145118D01*
X126372641Y-93048864D01*
X126226562Y-92988356D01*
X126226560Y-92988355D01*
X126109170Y-92972901D01*
X126109167Y-92972900D01*
X126109161Y-92972900D01*
X126109154Y-92972900D01*
X123424500Y-92972900D01*
X123357461Y-92953215D01*
X123311706Y-92900411D01*
X123300500Y-92848900D01*
X123300500Y-92380555D01*
X130987800Y-92380555D01*
X130987800Y-92693400D01*
X132172800Y-92693400D01*
X132672800Y-92693400D01*
X133857800Y-92693400D01*
X133857800Y-92380572D01*
X133857799Y-92380555D01*
X133851398Y-92321027D01*
X133851396Y-92321020D01*
X133801154Y-92186313D01*
X133801150Y-92186306D01*
X133714990Y-92071212D01*
X133714987Y-92071209D01*
X133599893Y-91985049D01*
X133599886Y-91985045D01*
X133465179Y-91934803D01*
X133465172Y-91934801D01*
X133405644Y-91928400D01*
X132672800Y-91928400D01*
X132672800Y-92693400D01*
X132172800Y-92693400D01*
X132172800Y-91928400D01*
X131439955Y-91928400D01*
X131380427Y-91934801D01*
X131380420Y-91934803D01*
X131245713Y-91985045D01*
X131245706Y-91985049D01*
X131130612Y-92071209D01*
X131130609Y-92071212D01*
X131044449Y-92186306D01*
X131044445Y-92186313D01*
X130994203Y-92321020D01*
X130994201Y-92321027D01*
X130987800Y-92380555D01*
X123300500Y-92380555D01*
X123300500Y-92053692D01*
X123301179Y-92040731D01*
X123301393Y-92038692D01*
X123305460Y-92000000D01*
X123301179Y-91959266D01*
X123300500Y-91946306D01*
X123300500Y-91911309D01*
X123292360Y-91870393D01*
X123290656Y-91859156D01*
X123285674Y-91811744D01*
X123275094Y-91779183D01*
X123271409Y-91765059D01*
X123265895Y-91737339D01*
X123265894Y-91737338D01*
X123265894Y-91737334D01*
X123247352Y-91692569D01*
X123243990Y-91683455D01*
X123227181Y-91631720D01*
X123227178Y-91631715D01*
X123213424Y-91607892D01*
X123206256Y-91593355D01*
X123201435Y-91581716D01*
X123198013Y-91573453D01*
X123167359Y-91527577D01*
X123163088Y-91520708D01*
X123132534Y-91467785D01*
X123132530Y-91467780D01*
X123118637Y-91452350D01*
X123107684Y-91438268D01*
X123099464Y-91425965D01*
X123055721Y-91382222D01*
X123051255Y-91377516D01*
X123005871Y-91327112D01*
X123005870Y-91327111D01*
X122994527Y-91318870D01*
X122979737Y-91306238D01*
X122974035Y-91300536D01*
X122926647Y-91268872D01*
X122917008Y-91262431D01*
X122913016Y-91259649D01*
X122852730Y-91215849D01*
X122846092Y-91212893D01*
X122827643Y-91202719D01*
X122826551Y-91201989D01*
X122826546Y-91201986D01*
X122756993Y-91173177D01*
X122754010Y-91171895D01*
X122679806Y-91138856D01*
X122679797Y-91138853D01*
X122679285Y-91138745D01*
X122668626Y-91135438D01*
X122668494Y-91135874D01*
X122662667Y-91134106D01*
X122662666Y-91134106D01*
X122662663Y-91134105D01*
X122662662Y-91134105D01*
X122582268Y-91118113D01*
X122580715Y-91117794D01*
X122494646Y-91099500D01*
X122305354Y-91099500D01*
X122305350Y-91099500D01*
X122219334Y-91117783D01*
X122217745Y-91118110D01*
X122137336Y-91134105D01*
X122131514Y-91135871D01*
X122131382Y-91135437D01*
X122120720Y-91138744D01*
X122120200Y-91138854D01*
X122120199Y-91138854D01*
X122045969Y-91171904D01*
X122042986Y-91173185D01*
X121973457Y-91201984D01*
X121973450Y-91201988D01*
X121972346Y-91202726D01*
X121953911Y-91212892D01*
X121947272Y-91215848D01*
X121947264Y-91215853D01*
X121886976Y-91259653D01*
X121882986Y-91262434D01*
X121825968Y-91300533D01*
X121825958Y-91300542D01*
X121820253Y-91306246D01*
X121805472Y-91318870D01*
X121794129Y-91327111D01*
X121794126Y-91327114D01*
X121748742Y-91377517D01*
X121744277Y-91382222D01*
X121700539Y-91425961D01*
X121700532Y-91425969D01*
X121692310Y-91438275D01*
X121681362Y-91452350D01*
X121667472Y-91467776D01*
X121667467Y-91467784D01*
X121636914Y-91520703D01*
X121632630Y-91527591D01*
X121601988Y-91573450D01*
X121593741Y-91593360D01*
X121586569Y-91607902D01*
X121572824Y-91631710D01*
X121572821Y-91631715D01*
X121556010Y-91683451D01*
X121552643Y-91692578D01*
X121534106Y-91737333D01*
X121528589Y-91765066D01*
X121524905Y-91779183D01*
X121514325Y-91811747D01*
X121509340Y-91859171D01*
X121507638Y-91870396D01*
X121499907Y-91909266D01*
X121499500Y-91911310D01*
X121499500Y-91946306D01*
X121498821Y-91959266D01*
X121494540Y-91999999D01*
X121498821Y-92040731D01*
X121499500Y-92053692D01*
X121499500Y-92848900D01*
X121479815Y-92915939D01*
X121427011Y-92961694D01*
X121375500Y-92972900D01*
X118630436Y-92972900D01*
X118513046Y-92988353D01*
X118513037Y-92988356D01*
X118366960Y-93048863D01*
X118241518Y-93145118D01*
X118145263Y-93270560D01*
X118084756Y-93416637D01*
X118084755Y-93416639D01*
X118071856Y-93514622D01*
X118069301Y-93534036D01*
X118069300Y-93534045D01*
X118069300Y-95218062D01*
X118049615Y-95285101D01*
X117996811Y-95330856D01*
X117927653Y-95340800D01*
X117864097Y-95311775D01*
X117830739Y-95265515D01*
X117789336Y-95165559D01*
X117693082Y-95040118D01*
X117567641Y-94943864D01*
X117453166Y-94896447D01*
X117421562Y-94883356D01*
X117421560Y-94883355D01*
X117304170Y-94867901D01*
X117304167Y-94867900D01*
X117304161Y-94867900D01*
X117304154Y-94867900D01*
X116449161Y-94867900D01*
X116382122Y-94848215D01*
X116361480Y-94831581D01*
X114962839Y-93432938D01*
X114962838Y-93432937D01*
X114936016Y-93415016D01*
X114856274Y-93361734D01*
X114856272Y-93361733D01*
X114856272Y-93361732D01*
X114815344Y-93334385D01*
X114815342Y-93334384D01*
X114733407Y-93300446D01*
X114733406Y-93300446D01*
X114651466Y-93266505D01*
X114651458Y-93266503D01*
X114477496Y-93231900D01*
X114477492Y-93231900D01*
X114477491Y-93231900D01*
X113721446Y-93231900D01*
X113532154Y-93231900D01*
X113532150Y-93231900D01*
X113446134Y-93250183D01*
X113444545Y-93250510D01*
X113364136Y-93266505D01*
X113358314Y-93268271D01*
X113358182Y-93267837D01*
X113347520Y-93271144D01*
X113347000Y-93271254D01*
X113346999Y-93271254D01*
X113272769Y-93304304D01*
X113269786Y-93305585D01*
X113200257Y-93334384D01*
X113200250Y-93334388D01*
X113199146Y-93335126D01*
X113180711Y-93345292D01*
X113174072Y-93348248D01*
X113174064Y-93348253D01*
X113113776Y-93392053D01*
X113109786Y-93394834D01*
X113052768Y-93432933D01*
X113052758Y-93432942D01*
X113047053Y-93438646D01*
X113032272Y-93451270D01*
X113020929Y-93459511D01*
X113020926Y-93459514D01*
X112975542Y-93509917D01*
X112971077Y-93514622D01*
X112927339Y-93558361D01*
X112927332Y-93558369D01*
X112919110Y-93570675D01*
X112908162Y-93584750D01*
X112894272Y-93600176D01*
X112894267Y-93600184D01*
X112863714Y-93653103D01*
X112859430Y-93659991D01*
X112828788Y-93705850D01*
X112820541Y-93725760D01*
X112813369Y-93740302D01*
X112799624Y-93764110D01*
X112799621Y-93764115D01*
X112782810Y-93815851D01*
X112779443Y-93824978D01*
X112760905Y-93869735D01*
X112759917Y-93874705D01*
X112727530Y-93936616D01*
X112666813Y-93971188D01*
X112597044Y-93967447D01*
X112540373Y-93926579D01*
X112514793Y-93861560D01*
X112514300Y-93850511D01*
X112514300Y-93660561D01*
X112533985Y-93593522D01*
X112550615Y-93572884D01*
X113479742Y-92643756D01*
X113494525Y-92631130D01*
X113505871Y-92622888D01*
X113551265Y-92572471D01*
X113555679Y-92567819D01*
X113599464Y-92524036D01*
X113607691Y-92511722D01*
X113618641Y-92497643D01*
X113632533Y-92482216D01*
X113663099Y-92429271D01*
X113667354Y-92422427D01*
X113698012Y-92376547D01*
X113706254Y-92356649D01*
X113713431Y-92342095D01*
X113725599Y-92321020D01*
X113727179Y-92318284D01*
X113743990Y-92266541D01*
X113747357Y-92257417D01*
X113765894Y-92212668D01*
X113765893Y-92212668D01*
X113765895Y-92212666D01*
X113771411Y-92184928D01*
X113775094Y-92170814D01*
X113785674Y-92138256D01*
X113790657Y-92090829D01*
X113792359Y-92079616D01*
X113798809Y-92047192D01*
X113800500Y-92038695D01*
X113800500Y-92003692D01*
X113801179Y-91990731D01*
X113801776Y-91985049D01*
X113805460Y-91950000D01*
X113801179Y-91909266D01*
X113800500Y-91896306D01*
X113800500Y-91861307D01*
X113792361Y-91820393D01*
X113790657Y-91809159D01*
X113785674Y-91761747D01*
X113785674Y-91761744D01*
X113775097Y-91729193D01*
X113771410Y-91715065D01*
X113765895Y-91687334D01*
X113747356Y-91642577D01*
X113743988Y-91633448D01*
X113727179Y-91581717D01*
X113727178Y-91581715D01*
X113713426Y-91557896D01*
X113706254Y-91543354D01*
X113698012Y-91523454D01*
X113667376Y-91477604D01*
X113663093Y-91470716D01*
X113644359Y-91438268D01*
X113632533Y-91417784D01*
X113632530Y-91417781D01*
X113632529Y-91417779D01*
X113618641Y-91402355D01*
X113607689Y-91388274D01*
X113603647Y-91382225D01*
X113599464Y-91375964D01*
X113599462Y-91375961D01*
X113599461Y-91375960D01*
X113555716Y-91332216D01*
X113551245Y-91327505D01*
X113505875Y-91277115D01*
X113505871Y-91277112D01*
X113494531Y-91268873D01*
X113479738Y-91256238D01*
X113474036Y-91250536D01*
X113417028Y-91212444D01*
X113413042Y-91209667D01*
X113352730Y-91165849D01*
X113352725Y-91165846D01*
X113346080Y-91162887D01*
X113327644Y-91152721D01*
X113326546Y-91151988D01*
X113326544Y-91151987D01*
X113326541Y-91151985D01*
X113326538Y-91151984D01*
X113256978Y-91123170D01*
X113253996Y-91121889D01*
X113179805Y-91088856D01*
X113179533Y-91088798D01*
X113179294Y-91088747D01*
X113168632Y-91085437D01*
X113168500Y-91085874D01*
X113162667Y-91084105D01*
X113082222Y-91068103D01*
X113080633Y-91067776D01*
X112994650Y-91049500D01*
X112994646Y-91049500D01*
X112805354Y-91049500D01*
X112719306Y-91067789D01*
X112717717Y-91068115D01*
X112637333Y-91084104D01*
X112631508Y-91085871D01*
X112631378Y-91085443D01*
X112620726Y-91088743D01*
X112620202Y-91088854D01*
X112620198Y-91088855D01*
X112545971Y-91121902D01*
X112542994Y-91123181D01*
X112473453Y-91151988D01*
X112473450Y-91151989D01*
X112472342Y-91152730D01*
X112453921Y-91162886D01*
X112447279Y-91165843D01*
X112447273Y-91165847D01*
X112386993Y-91209641D01*
X112383004Y-91212421D01*
X112325967Y-91250533D01*
X112325955Y-91250543D01*
X112320251Y-91256247D01*
X112305468Y-91268872D01*
X112294136Y-91277105D01*
X112294126Y-91277114D01*
X112248752Y-91327506D01*
X112244285Y-91332213D01*
X111101419Y-92475081D01*
X111040096Y-92508566D01*
X111013738Y-92511400D01*
X110689846Y-92511400D01*
X110677977Y-92512204D01*
X110648300Y-92514217D01*
X110468778Y-92558863D01*
X110468776Y-92558864D01*
X110303049Y-92641056D01*
X110158859Y-92756959D01*
X110042956Y-92901149D01*
X109960764Y-93066876D01*
X109960763Y-93066878D01*
X109916117Y-93246400D01*
X109913300Y-93287948D01*
X107500000Y-93287948D01*
X107500000Y-92059597D01*
X107519685Y-91992558D01*
X107546536Y-91962771D01*
X109966035Y-90027172D01*
X110030681Y-90000664D01*
X110043497Y-90000000D01*
X135876000Y-90000000D01*
X135943039Y-90019685D01*
G37*
%TD.AperFunction*%
%TD*%
D10*
%TO.P,D1d3,1,K*%
%TO.N,/BarP*%
X176700000Y-67225000D03*
D11*
%TO.P,D1d3,2,A*%
%TO.N,Net-(D1d1-K)*%
X164000000Y-67225000D03*
%TD*%
D10*
%TO.P,D1d2,1,K*%
%TO.N,/BarP*%
X176700000Y-62225000D03*
D11*
%TO.P,D1d2,2,A*%
%TO.N,Net-(D1d2-A)*%
X164000000Y-62225000D03*
%TD*%
D16*
%TO.P,T1,1*%
%TO.N,N/C*%
X161544000Y-99888500D03*
%TO.P,T1,2,2*%
%TO.N,Net-(D4-A)*%
X156464000Y-99888500D03*
%TO.P,T1,3*%
%TO.N,N/C*%
X151384000Y-99888500D03*
%TO.P,T1,4*%
X146304000Y-99888500D03*
%TO.P,T1,5,5*%
%TO.N,Terra*%
X141224000Y-99888500D03*
%TO.P,T1,6,6*%
%TO.N,Net-(D2-A)*%
X141224000Y-84888500D03*
%TO.P,T1,7,7*%
%TO.N,GND*%
X146304000Y-84888500D03*
%TO.P,T1,8,8*%
%TO.N,/Drain*%
X151384000Y-84888500D03*
%TO.P,T1,9*%
%TO.N,N/C*%
X156464000Y-84888500D03*
%TO.P,T1,10,10*%
%TO.N,/BarP*%
X161544000Y-84888500D03*
%TD*%
D10*
%TO.P,D1d1,1,K*%
%TO.N,Net-(D1d1-K)*%
X164000000Y-72500000D03*
D11*
%TO.P,D1d1,2,A*%
%TO.N,GND*%
X176700000Y-72500000D03*
%TD*%
D19*
%TO.P,V1,1,1*%
%TO.N,Net-(F1-Pad1)*%
X112050000Y-66040000D03*
D20*
%TO.P,V1,2,2*%
%TO.N,Net-(C3-Pad2)*%
X112050000Y-60960000D03*
%TD*%
D28*
%TO.P,R4,1,1*%
%TO.N,/BarP*%
X161595000Y-78500000D03*
D29*
%TO.P,R4,2,2*%
%TO.N,Net-(D3-K)*%
X131115000Y-78500000D03*
%TD*%
D10*
%TO.P,D1d4,1,K*%
%TO.N,Net-(D1d2-A)*%
X164000000Y-57500000D03*
D11*
%TO.P,D1d4,2,A*%
%TO.N,GND*%
X176700000Y-57500000D03*
%TD*%
D28*
%TO.P,C3,1,1*%
%TO.N,Net-(C3-Pad1)*%
X130700000Y-68850000D03*
%TO.P,C3,2,2*%
%TO.N,Net-(C3-Pad2)*%
X130700000Y-53850000D03*
%TD*%
D19*
%TO.P,V2,1,1*%
%TO.N,/Vout*%
X182245000Y-119507000D03*
D20*
%TO.P,V2,2,2*%
%TO.N,Terra*%
X182245000Y-114427000D03*
%TD*%
D28*
%TO.P,C3b1,1,1*%
%TO.N,/BarP*%
X124800000Y-73550000D03*
%TO.P,C3b1,2,2*%
%TO.N,Net-(D3-K)*%
X109800000Y-73550000D03*
%TD*%
D31*
%TO.P,D2,1,K*%
%TO.N,Net-(D2-K)*%
X118745000Y-86360000D03*
D32*
%TO.P,D2,2,A*%
%TO.N,Net-(D2-A)*%
X126365000Y-86360000D03*
%TD*%
D35*
%TO.P,C7,1,1*%
%TO.N,/BarP*%
X173487246Y-82500000D03*
D28*
%TO.P,C7,2,2*%
%TO.N,GND*%
X180987246Y-82500000D03*
%TD*%
D36*
%TO.P,D3,1,K*%
%TO.N,Net-(D3-K)*%
X118745000Y-82000000D03*
D37*
%TO.P,D3,2,A*%
%TO.N,/Drain*%
X126365000Y-82000000D03*
%TD*%
D39*
%TO.P,F1,1,1*%
%TO.N,Net-(F1-Pad1)*%
X117750000Y-66110000D03*
%TO.P,F1,2,2*%
%TO.N,Net-(C3-Pad1)*%
X126250000Y-66110000D03*
%TD*%
D40*
%TO.P,C5,1,1*%
%TO.N,GND*%
X174500000Y-92500000D03*
%TO.P,C5,2,2*%
%TO.N,Terra*%
X179500000Y-92500000D03*
%TD*%
D28*
%TO.P,L1,1,1*%
%TO.N,Net-(C3-Pad2)*%
X138975000Y-57225000D03*
D29*
%TO.P,L1,2,2*%
%TO.N,Net-(D1d2-A)*%
X153975000Y-57225000D03*
D28*
%TO.P,L1,3,3*%
%TO.N,Net-(C3-Pad1)*%
X138975000Y-67225000D03*
D29*
%TO.P,L1,4,4*%
%TO.N,Net-(D1d1-K)*%
X153975000Y-67225000D03*
%TD*%
D41*
%TO.N,/Drain*%
X122400000Y-92000000D03*
%TO.N,/Cmp*%
X109054800Y-102514400D03*
X113626800Y-94132400D03*
%TO.N,/Vdd*%
X132803800Y-98069400D03*
X113499800Y-95529400D03*
%TO.N,Net-(D2-K)*%
X112900000Y-91950000D03*
%TO.N,Net-(D4-K)*%
X145000000Y-120000000D03*
X156000000Y-110500000D03*
%TO.N,/Vout*%
X148750000Y-116250000D03*
%TD*%
D42*
%TO.N,Net-(D1d1-K)*%
X163050000Y-67400000D02*
X153975000Y-67400000D01*
X164000000Y-67225000D02*
X163225000Y-67225000D01*
X163225000Y-67225000D02*
X163050000Y-67400000D01*
X164000000Y-72500000D02*
X164000000Y-67225000D01*
%TO.N,GND*%
X180987246Y-82500000D02*
X174604746Y-88882500D01*
X176700000Y-72500000D02*
X180987246Y-76787246D01*
X173480000Y-88882500D02*
X148612500Y-88882500D01*
X174500000Y-88882500D02*
X174500000Y-92500000D01*
X176850000Y-72650000D02*
X178675000Y-72650000D01*
X146304000Y-86574000D02*
X146304000Y-84888500D01*
X179375000Y-57500000D02*
X176700000Y-57500000D01*
X180400000Y-70925000D02*
X180400000Y-58525000D01*
X148612500Y-88882500D02*
X146304000Y-86574000D01*
X176700000Y-72500000D02*
X176850000Y-72650000D01*
X173480000Y-88882500D02*
X174500000Y-88882500D01*
X180987246Y-76787246D02*
X180987246Y-81375254D01*
X174604746Y-88882500D02*
X173480000Y-88882500D01*
X180400000Y-58525000D02*
X179375000Y-57500000D01*
X178675000Y-72650000D02*
X180400000Y-70925000D01*
%TO.N,/BarP*%
X161595000Y-78500000D02*
X165425000Y-78500000D01*
X165425000Y-78500000D02*
X176700000Y-67225000D01*
X169425000Y-82500000D02*
X165425000Y-78500000D01*
X176700000Y-62225000D02*
X176700000Y-67225000D01*
X173487246Y-82500000D02*
X169425000Y-82500000D01*
X156645000Y-73550000D02*
X161595000Y-78500000D01*
X124800000Y-73550000D02*
X156645000Y-73550000D01*
X161595000Y-83896000D02*
X161595000Y-78500000D01*
X161507500Y-78500000D02*
X161507500Y-77855000D01*
X161507500Y-78500000D02*
X161507500Y-78000000D01*
X161544000Y-83947000D02*
X161595000Y-83896000D01*
%TO.N,Net-(D1d2-A)*%
X164500000Y-57000000D02*
X164000000Y-57500000D01*
X163725000Y-57225000D02*
X154150000Y-57225000D01*
X164000000Y-57500000D02*
X163725000Y-57225000D01*
X154150000Y-57225000D02*
X153975000Y-57400000D01*
X164000000Y-57500000D02*
X164000000Y-62225000D01*
%TO.N,Net-(D3-K)*%
X114750000Y-78500000D02*
X131115000Y-78500000D01*
X109800000Y-73550000D02*
X114750000Y-78500000D01*
X131150000Y-78535000D02*
X131115000Y-78500000D01*
X117530000Y-81280000D02*
X118745000Y-81280000D01*
X117125000Y-80875000D02*
X117530000Y-81280000D01*
X114750000Y-78500000D02*
X117125000Y-80875000D01*
X118250000Y-82000000D02*
X118745000Y-82000000D01*
X117125000Y-80875000D02*
X118250000Y-82000000D01*
%TO.N,/Drain*%
X137692468Y-82692467D02*
X139546435Y-80838500D01*
X149698500Y-80838500D02*
X151384000Y-82524000D01*
X126365000Y-82000000D02*
X127057467Y-82692467D01*
X127057467Y-82692467D02*
X137692468Y-82692467D01*
X124809366Y-82000000D02*
X122400000Y-84409366D01*
X126365000Y-82000000D02*
X124809366Y-82000000D01*
X139546435Y-80838500D02*
X149698500Y-80838500D01*
X126365000Y-81280000D02*
X126835000Y-81750000D01*
X151384000Y-82524000D02*
X151384000Y-84888500D01*
X122400000Y-84409366D02*
X122400000Y-92000000D01*
%TO.N,/Cmp*%
X109054800Y-102514400D02*
X109054800Y-96164400D01*
X111086800Y-94132400D02*
X113626800Y-94132400D01*
X109054800Y-96164400D02*
X111086800Y-94132400D01*
%TO.N,/Vdd*%
X132803800Y-98069400D02*
X116039800Y-98069400D01*
X116039800Y-98069400D02*
X113499800Y-95529400D01*
D43*
%TO.N,Terra*%
X141224000Y-100024000D02*
X141224000Y-99888500D01*
D42*
%TO.N,Net-(D2-K)*%
X118490000Y-86360000D02*
X118745000Y-86360000D01*
X112900000Y-91950000D02*
X118490000Y-86360000D01*
%TO.N,Net-(C3-Pad1)*%
X137860000Y-66110000D02*
X138975000Y-67225000D01*
X127960000Y-66110000D02*
X130700000Y-68850000D01*
X126250000Y-66110000D02*
X137860000Y-66110000D01*
X126250000Y-66110000D02*
X127960000Y-66110000D01*
X138975000Y-67225000D02*
X138975000Y-66885000D01*
%TO.N,Net-(C3-Pad2)*%
X121785000Y-57225000D02*
X118050000Y-60960000D01*
X138800000Y-57225000D02*
X121785000Y-57225000D01*
X118050000Y-60960000D02*
X112050000Y-60960000D01*
X127325000Y-57225000D02*
X121785000Y-57225000D01*
X138975000Y-57400000D02*
X138800000Y-57225000D01*
X130700000Y-53850000D02*
X127325000Y-57225000D01*
%TO.N,Net-(D4-K)*%
X145000000Y-120000000D02*
X145000000Y-116000422D01*
X145000000Y-116000422D02*
X150500422Y-110500000D01*
X150500422Y-110500000D02*
X156000000Y-110500000D01*
%TO.N,/Vout*%
X148750000Y-116250000D02*
X152007000Y-119507000D01*
X152007000Y-119507000D02*
X182245000Y-119507000D01*
%TO.N,Net-(D2-A)*%
X139752500Y-86360000D02*
X126365000Y-86360000D01*
X141224000Y-84888500D02*
X139752500Y-86360000D01*
D43*
%TO.N,Net-(F1-Pad1)*%
X112050000Y-66040000D02*
X117680000Y-66040000D01*
X117680000Y-66040000D02*
X117750000Y-66110000D01*
%TD*%
M02*
