%TF.GenerationSoftware,KiCad,Pcbnew,8.0.8*%
%TF.CreationDate,2025-03-04T11:57:41-03:00*%
%TF.ProjectId,switched_power_supply,73776974-6368-4656-945f-706f7765725f,rev?*%
%TF.SameCoordinates,Original*%
%TF.FileFunction,Paste,Top*%
%TF.FilePolarity,Positive*%
%FSLAX46Y46*%
G04 Gerber Fmt 4.6, Leading zero omitted, Abs format (unit mm)*
G04 Created by KiCad (PCBNEW 8.0.8) date 2025-03-04 11:57:41*
%MOMM*%
%LPD*%
G01*
G04 APERTURE LIST*
G04 Aperture macros list*
%AMRoundRect*
0 Rectangle with rounded corners*
0 $1 Rounding radius*
0 $2 $3 $4 $5 $6 $7 $8 $9 X,Y pos of 4 corners*
0 Add a 4 corners polygon primitive as box body*
4,1,4,$2,$3,$4,$5,$6,$7,$8,$9,$2,$3,0*
0 Add four circle primitives for the rounded corners*
1,1,$1+$1,$2,$3*
1,1,$1+$1,$4,$5*
1,1,$1+$1,$6,$7*
1,1,$1+$1,$8,$9*
0 Add four rect primitives between the rounded corners*
20,1,$1+$1,$2,$3,$4,$5,0*
20,1,$1+$1,$4,$5,$6,$7,0*
20,1,$1+$1,$6,$7,$8,$9,0*
20,1,$1+$1,$8,$9,$2,$3,0*%
G04 Aperture macros list end*
%ADD10C,0.010000*%
%ADD11RoundRect,0.250000X0.450000X-0.262500X0.450000X0.262500X-0.450000X0.262500X-0.450000X-0.262500X0*%
%ADD12R,2.800000X2.200000*%
%ADD13R,6.000000X2.500000*%
%ADD14RoundRect,0.250000X-0.450000X0.262500X-0.450000X-0.262500X0.450000X-0.262500X0.450000X0.262500X0*%
%ADD15R,1.250000X0.600000*%
%ADD16R,1.800000X1.150000*%
%ADD17RoundRect,0.300000X0.300000X-0.325000X0.300000X0.325000X-0.300000X0.325000X-0.300000X-0.325000X0*%
%ADD18RoundRect,0.317500X-0.317500X0.382500X-0.317500X-0.382500X0.317500X-0.382500X0.317500X0.382500X0*%
%ADD19R,0.980000X0.780000*%
%ADD20R,2.450000X0.630000*%
%ADD21R,2.500000X3.500000*%
%ADD22RoundRect,0.185000X0.555000X-0.890000X0.555000X0.890000X-0.555000X0.890000X-0.555000X-0.890000X0*%
%ADD23R,3.200000X3.050000*%
%ADD24R,1.870000X1.030000*%
%ADD25R,2.720000X1.020000*%
%TA.AperFunction,ComponentPad*%
%ADD26R,1.800000X1.800000*%
%TD*%
%TA.AperFunction,ComponentPad*%
%ADD27O,1.800000X1.800000*%
%TD*%
%TA.AperFunction,ComponentPad*%
%ADD28C,2.500000*%
%TD*%
%TA.AperFunction,ComponentPad*%
%ADD29R,3.000000X3.000000*%
%TD*%
%TA.AperFunction,ComponentPad*%
%ADD30C,3.000000*%
%TD*%
%TA.AperFunction,ComponentPad*%
%ADD31C,2.400000*%
%TD*%
%TA.AperFunction,ComponentPad*%
%ADD32O,2.400000X2.400000*%
%TD*%
%TA.AperFunction,ComponentPad*%
%ADD33R,1.600000X1.600000*%
%TD*%
%TA.AperFunction,ComponentPad*%
%ADD34O,1.600000X1.600000*%
%TD*%
%TA.AperFunction,ComponentPad*%
%ADD35R,2.400000X2.400000*%
%TD*%
%TA.AperFunction,ComponentPad*%
%ADD36R,2.200000X2.200000*%
%TD*%
%TA.AperFunction,ComponentPad*%
%ADD37O,2.200000X2.200000*%
%TD*%
%TA.AperFunction,ComponentPad*%
%ADD38C,2.000000*%
%TD*%
%TA.AperFunction,ComponentPad*%
%ADD39C,1.600000*%
%TD*%
%TA.AperFunction,ViaPad*%
%ADD40C,0.600000*%
%TD*%
%TA.AperFunction,Conductor*%
%ADD41C,0.600000*%
%TD*%
%TA.AperFunction,Conductor*%
%ADD42C,0.800000*%
%TD*%
G04 APERTURE END LIST*
D10*
%TO.C,IC1*%
X120551960Y-102828400D02*
X119069800Y-102828400D01*
X119069800Y-101754060D01*
X120551960Y-101754060D01*
X120551960Y-102828400D01*
G36*
X120551960Y-102828400D02*
G01*
X119069800Y-102828400D01*
X119069800Y-101754060D01*
X120551960Y-101754060D01*
X120551960Y-102828400D01*
G37*
X120559730Y-95228400D02*
X119069800Y-95228400D01*
X119069800Y-93351220D01*
X120559730Y-93351220D01*
X120559730Y-95228400D01*
G36*
X120559730Y-95228400D02*
G01*
X119069800Y-95228400D01*
X119069800Y-93351220D01*
X120559730Y-93351220D01*
X120559730Y-95228400D01*
G37*
X120573200Y-100928400D02*
X119069800Y-100928400D01*
X119069800Y-99632570D01*
X120573200Y-99632570D01*
X120573200Y-100928400D01*
G36*
X120573200Y-100928400D02*
G01*
X119069800Y-100928400D01*
X119069800Y-99632570D01*
X120573200Y-99632570D01*
X120573200Y-100928400D01*
G37*
X120575180Y-97128400D02*
X119069800Y-97128400D01*
X119069800Y-95472750D01*
X120575180Y-95472750D01*
X120575180Y-97128400D01*
G36*
X120575180Y-97128400D02*
G01*
X119069800Y-97128400D01*
X119069800Y-95472750D01*
X120575180Y-95472750D01*
X120575180Y-97128400D01*
G37*
X120585040Y-99028400D02*
X119069800Y-99028400D01*
X119069800Y-97556149D01*
X120585040Y-97556149D01*
X120585040Y-99028400D01*
G36*
X120585040Y-99028400D02*
G01*
X119069800Y-99028400D01*
X119069800Y-97556149D01*
X120585040Y-97556149D01*
X120585040Y-99028400D01*
G37*
X123269375Y-99028400D02*
X121539800Y-99028400D01*
X121539800Y-97559307D01*
X123269375Y-97559307D01*
X123269375Y-99028400D01*
G36*
X123269375Y-99028400D02*
G01*
X121539800Y-99028400D01*
X121539800Y-97559307D01*
X123269375Y-97559307D01*
X123269375Y-99028400D01*
G37*
X123274896Y-95228400D02*
X121539800Y-95228400D01*
X121539800Y-93410870D01*
X123274896Y-93410870D01*
X123274896Y-95228400D01*
G36*
X123274896Y-95228400D02*
G01*
X121539800Y-95228400D01*
X121539800Y-93410870D01*
X123274896Y-93410870D01*
X123274896Y-95228400D01*
G37*
X123279431Y-100928400D02*
X121539800Y-100928400D01*
X121539800Y-99633010D01*
X123279431Y-99633010D01*
X123279431Y-100928400D01*
G36*
X123279431Y-100928400D02*
G01*
X121539800Y-100928400D01*
X121539800Y-99633010D01*
X123279431Y-99633010D01*
X123279431Y-100928400D01*
G37*
X123279560Y-102828400D02*
X121539800Y-102828400D01*
X121539800Y-101715790D01*
X123279560Y-101715790D01*
X123279560Y-102828400D01*
G36*
X123279560Y-102828400D02*
G01*
X121539800Y-102828400D01*
X121539800Y-101715790D01*
X123279560Y-101715790D01*
X123279560Y-102828400D01*
G37*
X123281714Y-97128400D02*
X121539800Y-97128400D01*
X121539800Y-95461300D01*
X123281714Y-95461300D01*
X123281714Y-97128400D01*
G36*
X123281714Y-97128400D02*
G01*
X121539800Y-97128400D01*
X121539800Y-95461300D01*
X123281714Y-95461300D01*
X123281714Y-97128400D01*
G37*
X125923860Y-97128400D02*
X124009800Y-97128400D01*
X124009800Y-95517870D01*
X125923860Y-95517870D01*
X125923860Y-97128400D01*
G36*
X125923860Y-97128400D02*
G01*
X124009800Y-97128400D01*
X124009800Y-95517870D01*
X125923860Y-95517870D01*
X125923860Y-97128400D01*
G37*
X125955700Y-99028400D02*
X124009800Y-99028400D01*
X124009800Y-97557300D01*
X125955700Y-97557300D01*
X125955700Y-99028400D01*
G36*
X125955700Y-99028400D02*
G01*
X124009800Y-99028400D01*
X124009800Y-97557300D01*
X125955700Y-97557300D01*
X125955700Y-99028400D01*
G37*
X125962160Y-100928400D02*
X124009800Y-100928400D01*
X124009800Y-99624270D01*
X125962160Y-99624270D01*
X125962160Y-100928400D01*
G36*
X125962160Y-100928400D02*
G01*
X124009800Y-100928400D01*
X124009800Y-99624270D01*
X125962160Y-99624270D01*
X125962160Y-100928400D01*
G37*
X125977430Y-95228400D02*
X124009800Y-95228400D01*
X124009800Y-93398540D01*
X125977430Y-93398540D01*
X125977430Y-95228400D01*
G36*
X125977430Y-95228400D02*
G01*
X124009800Y-95228400D01*
X124009800Y-93398540D01*
X125977430Y-93398540D01*
X125977430Y-95228400D01*
G37*
X126013630Y-102828400D02*
X124009800Y-102828400D01*
X124009800Y-101740870D01*
X126013630Y-101740870D01*
X126013630Y-102828400D01*
G36*
X126013630Y-102828400D02*
G01*
X124009800Y-102828400D01*
X124009800Y-101740870D01*
X126013630Y-101740870D01*
X126013630Y-102828400D01*
G37*
%TD*%
D11*
%TO.C,R2*%
X111213800Y-105458900D03*
X111213800Y-103633900D03*
%TD*%
D12*
%TO.C,C9*%
X182000000Y-99800000D03*
X172100000Y-99800000D03*
X182000000Y-104500000D03*
X172100000Y-104500000D03*
D13*
X172100000Y-102150000D03*
X182000000Y-102150000D03*
%TD*%
D14*
%TO.C,R8*%
X140088500Y-119461000D03*
X140088500Y-121286000D03*
%TD*%
D15*
%TO.C,U2*%
X134974500Y-115971000D03*
X134974500Y-117871000D03*
X137074500Y-116921000D03*
%TD*%
D11*
%TO.C,R5*%
X132976500Y-115801500D03*
X132976500Y-113976500D03*
%TD*%
D16*
%TO.C,C10*%
X140088500Y-114024000D03*
X140088500Y-117024000D03*
%TD*%
D17*
%TO.C,D4*%
X159757000Y-103710000D03*
X158067000Y-103710000D03*
X156407000Y-103710000D03*
X159757000Y-105410000D03*
X158067000Y-105410000D03*
X156407000Y-105410000D03*
X159757000Y-107110000D03*
X158067000Y-107110000D03*
X156407000Y-107110000D03*
D18*
X161872000Y-104370000D03*
X161872000Y-106450000D03*
%TD*%
D19*
%TO.C,C2*%
X111213800Y-100163400D03*
X111213800Y-101563400D03*
%TD*%
D20*
%TO.C,IC1*%
X128699800Y-100863400D03*
X128699800Y-99593400D03*
X128699800Y-98323400D03*
X128699800Y-97053400D03*
X128699800Y-95783400D03*
X116039800Y-95783400D03*
X116039800Y-97053400D03*
X116039800Y-98323400D03*
X116039800Y-99593400D03*
X116039800Y-100863400D03*
%TD*%
D14*
%TO.C,R1*%
X111213800Y-97029900D03*
X111213800Y-98854900D03*
%TD*%
D21*
%TO.C,C11*%
X173024800Y-119436800D03*
X173024800Y-113836800D03*
%TD*%
D22*
%TO.C,U3*%
X121262300Y-116280000D03*
X123802300Y-116280000D03*
X123802300Y-107720000D03*
X121262300Y-107720000D03*
%TD*%
D23*
%TO.C,L2*%
X162179000Y-110562000D03*
X162179000Y-119562000D03*
%TD*%
D24*
%TO.C,C6*%
X132422800Y-95783400D03*
X132422800Y-92943400D03*
%TD*%
D11*
%TO.C,R3*%
X111213800Y-95449400D03*
X111213800Y-93624400D03*
%TD*%
%TO.C,R6*%
X132849500Y-121286000D03*
X132849500Y-119461000D03*
%TD*%
D25*
%TO.C,C4*%
X114300000Y-105450000D03*
X114300000Y-108250000D03*
%TD*%
D14*
%TO.C,R7*%
X143009500Y-115119500D03*
X143009500Y-116944500D03*
%TD*%
D26*
%TO.P,D1d3,1,K*%
%TO.N,/BarP*%
X176700000Y-67225000D03*
D27*
%TO.P,D1d3,2,A*%
%TO.N,Net-(D1d1-K)*%
X164000000Y-67225000D03*
%TD*%
D26*
%TO.P,D1d2,1,K*%
%TO.N,/BarP*%
X176700000Y-62225000D03*
D27*
%TO.P,D1d2,2,A*%
%TO.N,Net-(D1d2-A)*%
X164000000Y-62225000D03*
%TD*%
D28*
%TO.P,T1,1*%
%TO.N,N/C*%
X161544000Y-99888500D03*
%TO.P,T1,2,2*%
%TO.N,Net-(D4-A)*%
X156464000Y-99888500D03*
%TO.P,T1,3*%
%TO.N,N/C*%
X151384000Y-99888500D03*
%TO.P,T1,4*%
X146304000Y-99888500D03*
%TO.P,T1,5,5*%
%TO.N,Terra*%
X141224000Y-99888500D03*
%TO.P,T1,6,6*%
%TO.N,Net-(D2-A)*%
X141224000Y-84888500D03*
%TO.P,T1,7,7*%
%TO.N,GND*%
X146304000Y-84888500D03*
%TO.P,T1,8,8*%
%TO.N,/Drain*%
X151384000Y-84888500D03*
%TO.P,T1,9*%
%TO.N,N/C*%
X156464000Y-84888500D03*
%TO.P,T1,10,10*%
%TO.N,/BarP*%
X161544000Y-84888500D03*
%TD*%
D26*
%TO.P,D1d1,1,K*%
%TO.N,Net-(D1d1-K)*%
X164000000Y-72500000D03*
D27*
%TO.P,D1d1,2,A*%
%TO.N,GND*%
X176700000Y-72500000D03*
%TD*%
D29*
%TO.P,V1,1,1*%
%TO.N,Net-(F1-Pad1)*%
X112050000Y-66040000D03*
D30*
%TO.P,V1,2,2*%
%TO.N,Net-(C3-Pad2)*%
X112050000Y-60960000D03*
%TD*%
D31*
%TO.P,R4,1,1*%
%TO.N,/BarP*%
X161595000Y-78500000D03*
D32*
%TO.P,R4,2,2*%
%TO.N,Net-(D3-K)*%
X131115000Y-78500000D03*
%TD*%
D26*
%TO.P,D1d4,1,K*%
%TO.N,Net-(D1d2-A)*%
X164000000Y-57500000D03*
D27*
%TO.P,D1d4,2,A*%
%TO.N,GND*%
X176700000Y-57500000D03*
%TD*%
D31*
%TO.P,C3,1,1*%
%TO.N,Net-(C3-Pad1)*%
X130700000Y-68850000D03*
%TO.P,C3,2,2*%
%TO.N,Net-(C3-Pad2)*%
X130700000Y-53850000D03*
%TD*%
D29*
%TO.P,V2,1,1*%
%TO.N,/Vout*%
X182245000Y-119507000D03*
D30*
%TO.P,V2,2,2*%
%TO.N,Terra*%
X182245000Y-114427000D03*
%TD*%
D31*
%TO.P,C3b1,1,1*%
%TO.N,/BarP*%
X124800000Y-73550000D03*
%TO.P,C3b1,2,2*%
%TO.N,Net-(D3-K)*%
X109800000Y-73550000D03*
%TD*%
D33*
%TO.P,D2,1,K*%
%TO.N,Net-(D2-K)*%
X118745000Y-86360000D03*
D34*
%TO.P,D2,2,A*%
%TO.N,Net-(D2-A)*%
X126365000Y-86360000D03*
%TD*%
D35*
%TO.P,C7,1,1*%
%TO.N,/BarP*%
X173487246Y-82500000D03*
D31*
%TO.P,C7,2,2*%
%TO.N,GND*%
X180987246Y-82500000D03*
%TD*%
D36*
%TO.P,D3,1,K*%
%TO.N,Net-(D3-K)*%
X118745000Y-82000000D03*
D37*
%TO.P,D3,2,A*%
%TO.N,/Drain*%
X126365000Y-82000000D03*
%TD*%
D38*
%TO.P,F1,1,1*%
%TO.N,Net-(F1-Pad1)*%
X117750000Y-66110000D03*
%TO.P,F1,2,2*%
%TO.N,Net-(C3-Pad1)*%
X126250000Y-66110000D03*
%TD*%
D39*
%TO.P,C5,1,1*%
%TO.N,GND*%
X174500000Y-92500000D03*
%TO.P,C5,2,2*%
%TO.N,Terra*%
X179500000Y-92500000D03*
%TD*%
D31*
%TO.P,L1,1,1*%
%TO.N,Net-(C3-Pad2)*%
X138975000Y-57225000D03*
D32*
%TO.P,L1,2,2*%
%TO.N,Net-(D1d2-A)*%
X153975000Y-57225000D03*
D31*
%TO.P,L1,3,3*%
%TO.N,Net-(C3-Pad1)*%
X138975000Y-67225000D03*
D32*
%TO.P,L1,4,4*%
%TO.N,Net-(D1d1-K)*%
X153975000Y-67225000D03*
%TD*%
D40*
%TO.N,/Drain*%
X122400000Y-92000000D03*
%TO.N,/Cmp*%
X109054800Y-102514400D03*
X113626800Y-94132400D03*
%TO.N,/Vdd*%
X132803800Y-98069400D03*
X113499800Y-95529400D03*
%TO.N,Net-(D2-K)*%
X112900000Y-91950000D03*
%TO.N,Net-(D4-K)*%
X145000000Y-120000000D03*
X156000000Y-110500000D03*
%TO.N,/Vout*%
X148750000Y-116250000D03*
%TD*%
D41*
%TO.N,Net-(D1d1-K)*%
X163050000Y-67400000D02*
X153975000Y-67400000D01*
X164000000Y-67225000D02*
X163225000Y-67225000D01*
X163225000Y-67225000D02*
X163050000Y-67400000D01*
X164000000Y-72500000D02*
X164000000Y-67225000D01*
%TO.N,GND*%
X180987246Y-82500000D02*
X174604746Y-88882500D01*
X176700000Y-72500000D02*
X180987246Y-76787246D01*
X173480000Y-88882500D02*
X148612500Y-88882500D01*
X174500000Y-88882500D02*
X174500000Y-92500000D01*
X176850000Y-72650000D02*
X178675000Y-72650000D01*
X146304000Y-86574000D02*
X146304000Y-84888500D01*
X179375000Y-57500000D02*
X176700000Y-57500000D01*
X180400000Y-70925000D02*
X180400000Y-58525000D01*
X148612500Y-88882500D02*
X146304000Y-86574000D01*
X176700000Y-72500000D02*
X176850000Y-72650000D01*
X173480000Y-88882500D02*
X174500000Y-88882500D01*
X180987246Y-76787246D02*
X180987246Y-81375254D01*
X174604746Y-88882500D02*
X173480000Y-88882500D01*
X180400000Y-58525000D02*
X179375000Y-57500000D01*
X178675000Y-72650000D02*
X180400000Y-70925000D01*
%TO.N,/BarP*%
X161595000Y-78500000D02*
X165425000Y-78500000D01*
X165425000Y-78500000D02*
X176700000Y-67225000D01*
X169425000Y-82500000D02*
X165425000Y-78500000D01*
X176700000Y-62225000D02*
X176700000Y-67225000D01*
X173487246Y-82500000D02*
X169425000Y-82500000D01*
X156645000Y-73550000D02*
X161595000Y-78500000D01*
X124800000Y-73550000D02*
X156645000Y-73550000D01*
X161595000Y-83896000D02*
X161595000Y-78500000D01*
X161507500Y-78500000D02*
X161507500Y-77855000D01*
X161507500Y-78500000D02*
X161507500Y-78000000D01*
X161544000Y-83947000D02*
X161595000Y-83896000D01*
%TO.N,Net-(D1d2-A)*%
X164500000Y-57000000D02*
X164000000Y-57500000D01*
X163725000Y-57225000D02*
X154150000Y-57225000D01*
X164000000Y-57500000D02*
X163725000Y-57225000D01*
X154150000Y-57225000D02*
X153975000Y-57400000D01*
X164000000Y-57500000D02*
X164000000Y-62225000D01*
%TO.N,Net-(D3-K)*%
X114750000Y-78500000D02*
X131115000Y-78500000D01*
X109800000Y-73550000D02*
X114750000Y-78500000D01*
X131150000Y-78535000D02*
X131115000Y-78500000D01*
X117530000Y-81280000D02*
X118745000Y-81280000D01*
X117125000Y-80875000D02*
X117530000Y-81280000D01*
X114750000Y-78500000D02*
X117125000Y-80875000D01*
X118250000Y-82000000D02*
X118745000Y-82000000D01*
X117125000Y-80875000D02*
X118250000Y-82000000D01*
%TO.N,/Drain*%
X137692468Y-82692467D02*
X139546435Y-80838500D01*
X149698500Y-80838500D02*
X151384000Y-82524000D01*
X126365000Y-82000000D02*
X127057467Y-82692467D01*
X127057467Y-82692467D02*
X137692468Y-82692467D01*
X124809366Y-82000000D02*
X122400000Y-84409366D01*
X126365000Y-82000000D02*
X124809366Y-82000000D01*
X139546435Y-80838500D02*
X149698500Y-80838500D01*
X126365000Y-81280000D02*
X126835000Y-81750000D01*
X151384000Y-82524000D02*
X151384000Y-84888500D01*
X122400000Y-84409366D02*
X122400000Y-92000000D01*
%TO.N,/Cmp*%
X109054800Y-102514400D02*
X109054800Y-96164400D01*
X111086800Y-94132400D02*
X113626800Y-94132400D01*
X109054800Y-96164400D02*
X111086800Y-94132400D01*
%TO.N,/Vdd*%
X132803800Y-98069400D02*
X116039800Y-98069400D01*
X116039800Y-98069400D02*
X113499800Y-95529400D01*
D42*
%TO.N,Terra*%
X141224000Y-100024000D02*
X141224000Y-99888500D01*
D41*
%TO.N,Net-(D2-K)*%
X118490000Y-86360000D02*
X118745000Y-86360000D01*
X112900000Y-91950000D02*
X118490000Y-86360000D01*
%TO.N,Net-(C3-Pad1)*%
X137860000Y-66110000D02*
X138975000Y-67225000D01*
X127960000Y-66110000D02*
X130700000Y-68850000D01*
X126250000Y-66110000D02*
X137860000Y-66110000D01*
X126250000Y-66110000D02*
X127960000Y-66110000D01*
X138975000Y-67225000D02*
X138975000Y-66885000D01*
%TO.N,Net-(C3-Pad2)*%
X121785000Y-57225000D02*
X118050000Y-60960000D01*
X138800000Y-57225000D02*
X121785000Y-57225000D01*
X118050000Y-60960000D02*
X112050000Y-60960000D01*
X127325000Y-57225000D02*
X121785000Y-57225000D01*
X138975000Y-57400000D02*
X138800000Y-57225000D01*
X130700000Y-53850000D02*
X127325000Y-57225000D01*
%TO.N,Net-(D4-K)*%
X145000000Y-120000000D02*
X145000000Y-116000422D01*
X145000000Y-116000422D02*
X150500422Y-110500000D01*
X150500422Y-110500000D02*
X156000000Y-110500000D01*
%TO.N,/Vout*%
X148750000Y-116250000D02*
X152007000Y-119507000D01*
X152007000Y-119507000D02*
X182245000Y-119507000D01*
%TO.N,Net-(D2-A)*%
X139752500Y-86360000D02*
X126365000Y-86360000D01*
X141224000Y-84888500D02*
X139752500Y-86360000D01*
D42*
%TO.N,Net-(F1-Pad1)*%
X112050000Y-66040000D02*
X117680000Y-66040000D01*
X117680000Y-66040000D02*
X117750000Y-66110000D01*
%TD*%
M02*
