M48
; DRILL file {KiCad 8.0.8} date 2025-03-04T11:57:44-0300
; FORMAT={-:-/ absolute / inch / decimal}
; #@! TF.CreationDate,2025-03-04T11:57:44-03:00
; #@! TF.GenerationSoftware,Kicad,Pcbnew,8.0.8
; #@! TF.FileFunction,Plated,1,2,PTH
FMAT,2
INCH
; #@! TA.AperFunction,Plated,PTH,ViaDrill
T1C0.0118
; #@! TA.AperFunction,Plated,PTH,ComponentDrill
T2C0.0315
; #@! TA.AperFunction,Plated,PTH,ComponentDrill
T3C0.0354
; #@! TA.AperFunction,Plated,PTH,ComponentDrill
T4C0.0394
; #@! TA.AperFunction,Plated,PTH,ComponentDrill
T5C0.0433
; #@! TA.AperFunction,Plated,PTH,ComponentDrill
T6C0.0472
; #@! TA.AperFunction,Plated,PTH,ComponentDrill
T7C0.0598
%
G90
G05
T1
X4.2935Y-4.036
X4.4449Y-3.6201
X4.4685Y-3.761
X4.4735Y-3.706
X4.8189Y-3.622
X5.2285Y-3.861
X5.7087Y-4.7244
X5.8563Y-4.5768
X6.1417Y-4.3504
T2
X4.6358Y-2.6028
X4.675Y-3.4
X4.9705Y-2.6028
X4.975Y-3.4
X6.8701Y-3.6417
X7.0669Y-3.6417
T3
X6.4567Y-2.2638
X6.4567Y-2.4498
X6.4567Y-2.6467
X6.4567Y-2.8543
X6.9567Y-2.2638
X6.9567Y-2.4498
X6.9567Y-2.6467
X6.9567Y-2.8543
T4
X5.56Y-3.3421
X5.56Y-3.9326
X5.76Y-3.3421
X5.76Y-3.9326
X5.96Y-3.3421
X5.96Y-3.9326
X6.16Y-3.3421
X6.16Y-3.9326
X6.36Y-3.3421
X6.36Y-3.9326
T5
X4.675Y-3.2283
X4.975Y-3.2283
T6
X4.3228Y-2.8957
X4.9134Y-2.8957
X5.1457Y-2.1201
X5.1457Y-2.7106
X5.162Y-3.0906
X5.4715Y-2.253
X5.4715Y-2.6467
X6.062Y-2.253
X6.062Y-2.6467
X6.362Y-3.0906
X6.8302Y-3.248
X7.1255Y-3.248
T7
X4.4114Y-2.4
X4.4114Y-2.6
X7.175Y-4.505
X7.175Y-4.705
M30
